<?xml version="1.0" encoding="UTF-8" standalone="no"?>
<!-- Creator: CorelDRAW X7 -->

<svg
   xmlns:dc="http://purl.org/dc/elements/1.1/"
   xmlns:cc="http://creativecommons.org/ns#"
   xmlns:rdf="http://www.w3.org/1999/02/22-rdf-syntax-ns#"
   xmlns:svg="http://www.w3.org/2000/svg"
   xmlns="http://www.w3.org/2000/svg"
   xmlns:sodipodi="http://sodipodi.sourceforge.net/DTD/sodipodi-0.dtd"
   xmlns:inkscape="http://www.inkscape.org/namespaces/inkscape"
   xml:space="preserve"
   width="37.039856"
   height="41.999996"
   version="1.1"
   style="clip-rule:evenodd;fill-rule:evenodd;image-rendering:optimizeQuality;shape-rendering:geometricPrecision;text-rendering:geometricPrecision"
   viewBox="0 0 1045.347 1185.3332"
   id="svg3761"
   inkscape:version="0.91 r13725"
   sodipodi:docname="lighting 42px.svg"><metadata
     id="metadata3773"><rdf:RDF><cc:Work
         rdf:about=""><dc:format>image/svg+xml</dc:format><dc:type
           rdf:resource="http://purl.org/dc/dcmitype/StillImage" /><dc:title></dc:title></cc:Work></rdf:RDF></metadata><sodipodi:namedview
     pagecolor="#ffffff"
     bordercolor="#000000"
     borderopacity="0"
     objecttolerance="10"
     gridtolerance="10"
     guidetolerance="10"
     inkscape:pageopacity="0"
     inkscape:pageshadow="2"
     inkscape:window-width="977"
     inkscape:window-height="707"
     id="namedview3771"
     showgrid="false"
     fit-margin-top="0"
     fit-margin-left="0"
     fit-margin-right="0"
     fit-margin-bottom="0"
     inkscape:zoom="4.3745864"
     inkscape:cx="18.51993"
     inkscape:cy="20.999995"
     inkscape:window-x="1385"
     inkscape:window-y="287"
     inkscape:window-maximized="0"
     inkscape:current-layer="svg3761"
     units="px" /><defs
     id="defs3763"><style
       type="text/css"
       id="style3765"><![CDATA[
    .fil0 {fill:#1F1B20}
   ]]></style></defs><g
     id="Layer_x0020_1"
     transform="matrix(0.3499655,0,0,0.3499655,-8191.9924,-571.84363)"
     style="fill:#c32026;fill-opacity:1"><metadata
       id="CorelCorpID_0Corel-Layer" /><path
       class="fil0"
       d="m 24464,3117 c 0,349 -18,393 61,387 265,-21 507,-9 773,-3 69,0 40,-140 40,-331 0,-159 -23,-290 -96,-380 -245,-299 -778,-190 -778,327 z m -53,438 980,0 c 22,0 40,18 40,40 l 0,11 c 0,22 -18,40 -40,40 l -980,0 c -22,0 -40,-18 -40,-40 l 0,-11 c 0,-22 18,-40 40,-40 z m 214,158 141,0 0,804 c 0,22 -18,40 -40,40 l -61,0 c -22,0 -40,-18 -40,-40 l 0,-804 z m 411,0 141,0 0,1268 c 0,22 -18,40 -40,40 l -61,0 c -22,0 -40,-18 -40,-40 l 0,-1268 z m 367,-1156 492,-491 c 15,-16 41,-16 56,0 l 7,7 c 16,15 16,41 0,56 l -491,492 c -16,15 -41,15 -57,0 l -7,-7 c -15,-16 -15,-41 0,-57 z m -1004,-2 -491,-492 c -16,-15 -41,-15 -57,0 l -7,7 c -15,16 -15,42 0,57 l 492,492 c 15,15 41,15 56,0 l 7,-7 c 16,-16 16,-41 0,-57 z m 1261,525 695,0 c 22,0 40,18 40,40 l 0,10 c 0,22 -18,40 -40,40 l -695,0 c -22,0 -40,-18 -40,-40 l 0,-10 c 0,-22 18,-40 40,-40 z m -714,-1406 0,696 c 0,22 -18,40 -40,40 l -10,0 c -22,0 -40,-18 -40,-40 l 0,-696 c 0,-22 18,-40 40,-40 l 10,0 c 22,0 40,18 40,40 z m -1200,793 -7,0 0,5 7,0 0,-5 z m -298,613 695,0 c 22,0 40,18 40,40 l 0,10 c 0,22 -18,40 -40,40 l -695,0 c -22,0 -40,-18 -40,-40 l 0,-10 c 0,-22 18,-40 40,-40 z"
       id="path3769"
       inkscape:connector-curvature="0"
       style="fill:#c32026;fill-opacity:1" /></g></svg>