<?xml version="1.0" encoding="UTF-8" standalone="no"?>
<!-- Created with Inkscape (http://www.inkscape.org/) -->

<svg
   xmlns:dc="http://purl.org/dc/elements/1.1/"
   xmlns:cc="http://creativecommons.org/ns#"
   xmlns:rdf="http://www.w3.org/1999/02/22-rdf-syntax-ns#"
   xmlns:svg="http://www.w3.org/2000/svg"
   xmlns="http://www.w3.org/2000/svg"
   xmlns:sodipodi="http://sodipodi.sourceforge.net/DTD/sodipodi-0.dtd"
   xmlns:inkscape="http://www.inkscape.org/namespaces/inkscape"
   id="svg6909"
   version="1.1"
   inkscape:version="0.91 r13725"
   xml:space="preserve"
   width="38.916248"
   height="40.231251"
   viewBox="0 0 38.916249 40.23125"
   sodipodi:docname="CPU icon.svg"><metadata
     id="metadata6915"><rdf:RDF><cc:Work
         rdf:about=""><dc:format>image/svg+xml</dc:format><dc:type
           rdf:resource="http://purl.org/dc/dcmitype/StillImage" /><dc:title /></cc:Work></rdf:RDF></metadata><defs
     id="defs6913"><clipPath
       clipPathUnits="userSpaceOnUse"
       id="clipPath6939"><path
         d="m 0.003,839.446 701.948,0 0,109.838 -701.948,0 0,-109.838 z"
         id="path6941"
         inkscape:connector-curvature="0" /></clipPath><clipPath
       clipPathUnits="userSpaceOnUse"
       id="clipPath6975"><path
         d="M 0,975 702,975 702,0 0,0 0,975 Z"
         id="path6977"
         inkscape:connector-curvature="0" /></clipPath><clipPath
       clipPathUnits="userSpaceOnUse"
       id="clipPath6991"><path
         d="m 25.567,885.277 -0.863,-1.44 7.323,-13.688 0.862,1.44 0.432,3.319 -7.322,13.688 -0.432,-3.319 z"
         id="path6993"
         inkscape:connector-curvature="0" /></clipPath><clipPath
       clipPathUnits="userSpaceOnUse"
       id="clipPath7003"><path
         d="m 132.677,874.908 0.432,-3.319 0.862,-1.44 7.322,13.688 -0.862,1.44 -0.432,3.319 -7.322,-13.688 z"
         id="path7005"
         inkscape:connector-curvature="0" /></clipPath><clipPath
       clipPathUnits="userSpaceOnUse"
       id="clipPath7015"><path
         d="m 166.567,885.277 -0.863,-1.44 7.322,-13.688 0.863,1.44 0.431,3.319 -7.321,13.688 -0.432,-3.319 z"
         id="path7017"
         inkscape:connector-curvature="0" /></clipPath><clipPath
       clipPathUnits="userSpaceOnUse"
       id="clipPath7027"><path
         d="m 273.677,874.908 0.431,-3.319 0.864,-1.44 7.321,13.688 -0.863,1.44 -0.431,3.319 -7.322,-13.688 z"
         id="path7029"
         inkscape:connector-curvature="0" /></clipPath><clipPath
       clipPathUnits="userSpaceOnUse"
       id="clipPath7039"><path
         d="m 420.781,885.277 -0.864,-1.44 7.322,-13.688 0.863,1.44 0.431,3.319 -7.321,13.688 -0.431,-3.319 z"
         id="path7041"
         inkscape:connector-curvature="0" /></clipPath><clipPath
       clipPathUnits="userSpaceOnUse"
       id="clipPath7051"><path
         d="m 527.891,874.908 0.431,-3.319 0.863,-1.44 7.321,13.688 -0.863,1.44 -0.431,3.319 -7.321,-13.688 z"
         id="path7053"
         inkscape:connector-curvature="0" /></clipPath><clipPath
       clipPathUnits="userSpaceOnUse"
       id="clipPath7063"><path
         d="m 561.781,885.277 -0.863,-1.44 7.321,-13.688 0.863,1.44 0.432,3.319 -7.322,13.688 -0.431,-3.319 z"
         id="path7065"
         inkscape:connector-curvature="0" /></clipPath><clipPath
       clipPathUnits="userSpaceOnUse"
       id="clipPath7075"><path
         d="m 668.891,874.908 0.431,-3.319 0.863,-1.44 7.321,13.688 -0.863,1.44 -0.431,3.319 -7.321,-13.688 z"
         id="path7077"
         inkscape:connector-curvature="0" /></clipPath><clipPath
       clipPathUnits="userSpaceOnUse"
       id="clipPath7087"><path
         d="M 0,975 702,975 702,0 0,0 0,975 Z"
         id="path7089"
         inkscape:connector-curvature="0" /></clipPath><clipPath
       clipPathUnits="userSpaceOnUse"
       id="clipPath7125"><path
         d="M 0,975 702,975 702,0 0,0 0,975 Z"
         id="path7127"
         inkscape:connector-curvature="0" /></clipPath><clipPath
       clipPathUnits="userSpaceOnUse"
       id="clipPath7171"><path
         d="M 0,975 702,975 702,0 0,0 0,975 Z"
         id="path7173"
         inkscape:connector-curvature="0" /></clipPath><clipPath
       clipPathUnits="userSpaceOnUse"
       id="clipPath7197"><path
         d="M 0,975 702,975 702,0 0,0 0,975 Z"
         id="path7199"
         inkscape:connector-curvature="0" /></clipPath><clipPath
       clipPathUnits="userSpaceOnUse"
       id="clipPath7247"><path
         d="M 0,975 702,975 702,0 0,0 0,975 Z"
         id="path7249"
         inkscape:connector-curvature="0" /></clipPath><clipPath
       clipPathUnits="userSpaceOnUse"
       id="clipPath7285"><path
         d="M 0,975 702,975 702,0 0,0 0,975 Z"
         id="path7287"
         inkscape:connector-curvature="0" /></clipPath><clipPath
       clipPathUnits="userSpaceOnUse"
       id="clipPath7299"><path
         d="M 0,975 702,975 702,0 0,0 0,975 Z"
         id="path7301"
         inkscape:connector-curvature="0" /></clipPath><clipPath
       clipPathUnits="userSpaceOnUse"
       id="clipPath7315"><path
         d="M 0,975 702,975 702,0 0,0 0,975 Z"
         id="path7317"
         inkscape:connector-curvature="0" /></clipPath><clipPath
       clipPathUnits="userSpaceOnUse"
       id="clipPath7331"><path
         d="M 0,975 702,975 702,0 0,0 0,975 Z"
         id="path7333"
         inkscape:connector-curvature="0" /></clipPath><clipPath
       clipPathUnits="userSpaceOnUse"
       id="clipPath7353"><path
         d="M 0,975 702,975 702,0 0,0 0,975 Z"
         id="path7355"
         inkscape:connector-curvature="0" /></clipPath><clipPath
       clipPathUnits="userSpaceOnUse"
       id="clipPath7367"><path
         d="M 0,975 702,975 702,0 0,0 0,975 Z"
         id="path7369"
         inkscape:connector-curvature="0" /></clipPath><clipPath
       clipPathUnits="userSpaceOnUse"
       id="clipPath7383"><path
         d="M 0,975 702,975 702,0 0,0 0,975 Z"
         id="path7385"
         inkscape:connector-curvature="0" /></clipPath><clipPath
       clipPathUnits="userSpaceOnUse"
       id="clipPath7543"><path
         d="M 0,975 702,975 702,0 0,0 0,975 Z"
         id="path7545"
         inkscape:connector-curvature="0" /></clipPath><clipPath
       clipPathUnits="userSpaceOnUse"
       id="clipPath7561"><path
         d="M 0,975 702,975 702,0 0,0 0,975 Z"
         id="path7563"
         inkscape:connector-curvature="0" /></clipPath><clipPath
       clipPathUnits="userSpaceOnUse"
       id="clipPath7601"><path
         d="M 0,975 702,975 702,0 0,0 0,975 Z"
         id="path7603"
         inkscape:connector-curvature="0" /></clipPath></defs><sodipodi:namedview
     pagecolor="#ffffff"
     bordercolor="#666666"
     borderopacity="1"
     objecttolerance="10"
     gridtolerance="10"
     guidetolerance="10"
     inkscape:pageopacity="0"
     inkscape:pageshadow="2"
     inkscape:window-width="1873"
     inkscape:window-height="1176"
     id="namedview6911"
     showgrid="false"
     fit-margin-top="0"
     fit-margin-left="0"
     fit-margin-right="0"
     fit-margin-bottom="0"
     inkscape:zoom="0.89760836"
     inkscape:cx="377.72662"
     inkscape:cy="-306.84254"
     inkscape:window-x="1327"
     inkscape:window-y="24"
     inkscape:window-maximized="1"
     inkscape:current-layer="g6917" /><g
     id="g6917"
     inkscape:groupmode="layer"
     inkscape:label="CPU Monitoring4 [Converted]"
     transform="matrix(1.25,0,0,-1.25,-61.068375,925.834)"><text
       transform="matrix(1,0,0,-1,37.7677,919.5786)"
       style="font-variant:normal;font-weight:bold;font-stretch:condensed;font-size:8.67399979px;font-family:'Myriad Pro';-inkscape-font-specification:SupriaSans-CondBold;writing-mode:lr-tb;fill:#ffffff;fill-opacity:1;fill-rule:nonzero;stroke:none"
       id="text6959"><tspan
         x="0 6.5922399 13.856715 18.033245 25.570951 32.579544 41.106087 47.60725 51.775105 56.671577 60.778717 65.037651 72.575356 78.785942"
         y="0"
         sodipodi:role="line"
         id="tspan6961">PC NAME - INFO</tspan></text>
<text
       transform="matrix(1,0,0,-1,205.4092,884.3666)"
       style="font-variant:normal;font-weight:bold;font-stretch:condensed;font-size:9px;font-family:'Myriad Pro';-inkscape-font-specification:SupriaSans-CondBold;writing-mode:lr-tb;fill:#ffffff;fill-opacity:1;fill-rule:nonzero;stroke:none"
       id="text6983"><tspan
         x="0 4.2480001 6.3990002 12.213 18.080999 22.554001 24.705 30.627001 262.50299 266.88599 272.39401 278.31601"
         y="0"
         sodipodi:role="line"
         id="tspan6985">LIGHTINGFANS</tspan></text>
<text
       transform="matrix(1,0,0,-1,51.6969,885.3919)"
       style="font-variant:normal;font-weight:bold;font-stretch:condensed;font-size:9px;font-family:'Myriad Pro';-inkscape-font-specification:SupriaSans-CondBold;writing-mode:lr-tb;fill:#ffffff;fill-opacity:1;fill-rule:nonzero;stroke:none"
       id="text7115"><tspan
         x="0 4.4369998 9.3059998 13.743 18.216 22.643999 29.879999 31.788 37.655998 42.084 47.591999 51.84 56.313"
         y="0"
         sodipodi:role="line"
         id="tspan7117">SYSTEM HEALTH</tspan><tspan
         x="558.05402 560.20502 566.12701 570.51001"
         y="-0.098999999"
         sodipodi:role="line"
         id="tspan7119">INFO</tspan></text>
<g
       id="g7597"><g
         id="g7599"
         clip-path="url(#clipPath7601)"><g
           id="g7609"
           transform="translate(69.5857,733.1051)"><path
             d="m 0,0 -10.329,0 c -1.623,0 -2.938,-1.315 -2.938,-2.939 l 0,-11.183 c 0,-1.623 1.315,-2.939 2.938,-2.939 l 10.329,0 c 1.623,0 2.939,1.316 2.939,2.939 l 0,11.183 C 2.939,-1.315 1.623,0 0,0"
             style="fill:#c32026;fill-opacity:1;fill-rule:evenodd;stroke:none"
             id="path7611"
             inkscape:connector-curvature="0" /></g><g
           id="g7613"
           transform="translate(73.9587,718.6102)"><path
             d="m 0,0 c 0,-2.221 -1.807,-4.028 -4.029,-4.028 l -11.017,0 c -2.222,0 -4.029,1.807 -4.029,4.028 l 0,11.929 c 0,2.222 1.807,4.029 4.029,4.029 l 11.017,0 C -1.807,15.958 0,14.151 0,11.929 L 0,0 Z m 4.793,4.729 c 0.683,0 1.236,0.553 1.236,1.235 0,0.683 -0.553,1.236 -1.236,1.236 l -2.82,0 0,2.791 2.82,0 c 0.683,0 1.236,0.553 1.236,1.236 0,0.682 -0.553,1.235 -1.236,1.235 l -2.845,0 c -0.242,2.731 -2.319,4.942 -4.988,5.386 l 0,2.974 c 0,0.682 -0.553,1.235 -1.236,1.235 -0.682,0 -1.235,-0.553 -1.235,-1.235 l 0,-2.891 -2.791,0 0,2.891 c 0,0.682 -0.553,1.235 -1.235,1.235 -0.683,0 -1.236,-0.553 -1.236,-1.235 l 0,-2.891 -2.791,0 0,2.891 c 0,0.682 -0.553,1.235 -1.235,1.235 -0.683,0 -1.236,-0.553 -1.236,-1.235 l 0,-2.974 c -2.669,-0.444 -4.747,-2.655 -4.988,-5.386 l -2.845,0 c -0.683,0 -1.236,-0.553 -1.236,-1.235 0,-0.683 0.553,-1.236 1.236,-1.236 l 2.82,0 0,-2.791 -2.82,0 c -0.683,0 -1.236,-0.553 -1.236,-1.236 0,-0.682 0.553,-1.235 1.236,-1.235 l 2.82,0 0,-2.791 -2.82,0 c -0.683,0 -1.236,-0.553 -1.236,-1.235 0,-0.683 0.553,-1.236 1.236,-1.236 l 2.845,0 c 0.241,-2.731 2.319,-4.941 4.988,-5.386 l 0,-2.974 c 0,-0.682 0.553,-1.235 1.236,-1.235 0.682,0 1.235,0.553 1.235,1.235 l 0,2.892 2.791,0 0,-2.892 c 0,-0.682 0.553,-1.235 1.236,-1.235 0.682,0 1.235,0.553 1.235,1.235 l 0,2.892 2.791,0 0,-2.892 c 0,-0.682 0.553,-1.235 1.235,-1.235 0.683,0 1.236,0.553 1.236,1.235 l 0,2.974 c 2.669,0.444 4.746,2.655 4.988,5.386 l 2.845,0 c 0.683,0 1.236,0.553 1.236,1.235 0,0.683 -0.553,1.236 -1.236,1.236 l -2.82,0 0,2.791 2.82,0 z"
             style="fill:#c32026;fill-opacity:1;fill-rule:evenodd;stroke:none"
             id="path7615"
             inkscape:connector-curvature="0" /></g></g></g></g></svg>