<?xml version="1.0" encoding="UTF-8" standalone="no"?>
<!-- Generator: Adobe Illustrator 20.1.0, SVG Export Plug-In . SVG Version: 6.00 Build 0)  -->

<svg
   xmlns:dc="http://purl.org/dc/elements/1.1/"
   xmlns:cc="http://creativecommons.org/ns#"
   xmlns:rdf="http://www.w3.org/1999/02/22-rdf-syntax-ns#"
   xmlns:svg="http://www.w3.org/2000/svg"
   xmlns="http://www.w3.org/2000/svg"
   xmlns:xlink="http://www.w3.org/1999/xlink"
   xmlns:sodipodi="http://sodipodi.sourceforge.net/DTD/sodipodi-0.dtd"
   xmlns:inkscape="http://www.inkscape.org/namespaces/inkscape"
   version="1.1"
   id="Layer_1"
   x="0px"
   y="0px"
   viewBox="0 0 18.606316 18.799999"
   xml:space="preserve"
   inkscape:version="0.91 r13725"
   sodipodi:docname="Facebook icon.svg"
   width="18.606318"
   height="18.799999"><metadata
     id="metadata1015"><rdf:RDF><cc:Work
         rdf:about=""><dc:format>image/svg+xml</dc:format><dc:type
           rdf:resource="http://purl.org/dc/dcmitype/StillImage" /><dc:title /></cc:Work></rdf:RDF></metadata><defs
     id="defs1013" /><sodipodi:namedview
     pagecolor="#ffffff"
     bordercolor="#666666"
     borderopacity="1"
     objecttolerance="10"
     gridtolerance="10"
     guidetolerance="10"
     inkscape:pageopacity="0"
     inkscape:pageshadow="2"
     inkscape:window-width="1873"
     inkscape:window-height="1176"
     id="namedview1011"
     showgrid="false"
     fit-margin-top="0"
     fit-margin-left="0"
     fit-margin-right="0"
     fit-margin-bottom="0"
     inkscape:zoom="0.98152151"
     inkscape:cx="244.07248"
     inkscape:cy="529.2803"
     inkscape:window-x="1327"
     inkscape:window-y="24"
     inkscape:window-maximized="1"
     inkscape:current-layer="Layer_1" /><style
     type="text/css"
     id="style3">
	.st0{fill-rule:evenodd;clip-rule:evenodd;fill:#333333;}
	.st1{fill-rule:evenodd;clip-rule:evenodd;fill:#292929;}
	.st2{fill-rule:evenodd;clip-rule:evenodd;}
	.st3{fill-rule:evenodd;clip-rule:evenodd;fill:#C32026;}
	.st4{fill-rule:evenodd;clip-rule:evenodd;fill:#FF0000;}
	.st5{fill:#FFFFFF;}
	.st6{font-family:'SupriaSans-CondBold';}
	.st7{font-size:8.674px;}
	.st8{letter-spacing:2;}
	.st9{fill:#C32026;}
	.st10{font-size:16.6317px;}
	.st11{font-size:11.6623px;}
	.st12{font-size:9px;}
	.st13{fill-rule:evenodd;clip-rule:evenodd;fill:#666666;}
	.st14{font-size:12.2579px;}
	.st15{font-size:4.928px;}
	.st16{fill-rule:evenodd;clip-rule:evenodd;fill:none;stroke:#FFFFFF;stroke-width:0.5;stroke-miterlimit:2.6131;}
	.st17{fill-rule:evenodd;clip-rule:evenodd;fill:#FFFFFF;}
	.st18{fill-rule:evenodd;clip-rule:evenodd;fill:none;stroke:#FFFFFF;stroke-width:0.9998;stroke-miterlimit:2.6131;}
	.st19{font-size:23.3966px;}
	.st20{font-size:18.7364px;}
	.st21{font-size:9.8164px;}
	.st22{font-size:6.9613px;}
	.st23{fill-rule:evenodd;clip-rule:evenodd;fill:#4D4D4D;}
	.st24{font-size:13.3826px;}
	.st25{font-size:7.0112px;}
</style><g
     id="g675"
     transform="translate(-433.93497,-1040.1606)"><defs
       id="defs677"><circle
         id="SVGID_31_"
         cx="270.20001"
         cy="238.5"
         r="58.299999" /></defs><clipPath
       id="SVGID_32_"><use
         xlink:href="#SVGID_31_"
         style="overflow:visible"
         id="use681"
         x="0"
         y="0"
         width="100%"
         height="100%" /></clipPath><g
       id="g683"
       clip-path="url(#SVGID_32_)"
       transform="translate(-70,0)" /></g><path
     class="st17"
     d="M 16.199969,0 2.4999695,0 c -1.4,0 -2.500000017578,1.1 -2.500000017578,2.5 l 0,13.7 c 0,1.4 1.100000017578,2.5 2.500000017578,2.5 l 6.7,0 0,-6.7 -1.7,0 c -0.2,0 -0.4,-0.2 -0.4,-0.4 l 0,-2.2 c 0,-0.2 0.2,-0.4 0.4,-0.4 l 1.7,0 0,-2.1 c 0,-2.4 1.4999995,-3.7 3.5999995,-3.7 l 1.8,0 c 0.2,0 0.4,0.2 0.4,0.4 l 0,1.8 c 0,0.2 -0.2,0.4 -0.4,0.4 l -1.1,0 c -1.2,0 -1.4,0.6 -1.4,1.4 l 0,1.8 2.6,0 c 0.2,0 0.4,0.2 0.4,0.5 l -0.3,2.2 c 0,0.2 -0.2,0.4 -0.4,0.4 l -2.3,0 0,6.7 4,0 c 1.4,0 2.5,-1.1 2.5,-2.5 l 0,-13.7 c 0.1,-1.5 -1,-2.6 -2.4,-2.6 z"
     id="path719"
     inkscape:connector-curvature="0"
     style="clip-rule:evenodd;fill:#ffffff;fill-rule:evenodd" /></svg>