<?xml version="1.0" encoding="UTF-8" standalone="no"?>
<!-- Generator: Adobe Illustrator 16.0.3, SVG Export Plug-In . SVG Version: 6.00 Build 0)  -->

<svg
   xmlns:dc="http://purl.org/dc/elements/1.1/"
   xmlns:cc="http://creativecommons.org/ns#"
   xmlns:rdf="http://www.w3.org/1999/02/22-rdf-syntax-ns#"
   xmlns:svg="http://www.w3.org/2000/svg"
   xmlns="http://www.w3.org/2000/svg"
   xmlns:sodipodi="http://sodipodi.sourceforge.net/DTD/sodipodi-0.dtd"
   xmlns:inkscape="http://www.inkscape.org/namespaces/inkscape"
   version="1.1"
   id="Layer_1"
   x="0px"
   y="0px"
   width="79.97258"
   height="80.175766"
   viewBox="0 0 79.97258 80.175766"
   enable-background="new 0 0 612 792"
   xml:space="preserve"
   inkscape:version="0.91 r13725"
   sodipodi:docname="fan-icon.svg"><metadata
     id="metadata3476"><rdf:RDF><cc:Work
         rdf:about=""><dc:format>image/svg+xml</dc:format><dc:type
           rdf:resource="http://purl.org/dc/dcmitype/StillImage" /><dc:title></dc:title></cc:Work></rdf:RDF></metadata><defs
     id="defs3474" /><sodipodi:namedview
     pagecolor="#ffffff"
     bordercolor="#000000"
     borderopacity="0"
     objecttolerance="10"
     gridtolerance="10"
     guidetolerance="10"
     inkscape:pageopacity="0"
     inkscape:pageshadow="2"
     inkscape:window-width="1920"
     inkscape:window-height="1176"
     id="namedview3472"
     showgrid="false"
     fit-margin-top="0"
     fit-margin-left="0"
     fit-margin-right="0"
     fit-margin-bottom="0"
     inkscape:zoom="9.1634168"
     inkscape:cx="45.199021"
     inkscape:cy="38.965107"
     inkscape:window-x="1920"
     inkscape:window-y="24"
     inkscape:window-maximized="1"
     inkscape:current-layer="g3434" /><g
     id="g3434"
     transform="translate(-282.15186,-336.094)"><g
       id="g3436"
       style="fill:#c32026;fill-opacity:1"><circle
         cx="321.99301"
         cy="376.13"
         r="7.7329998"
         id="circle3438"
         style="fill:#c32026;fill-opacity:1" /></g><g
       id="g3440"
       style="fill:#c32026;fill-opacity:1"><path
         d="m 307.926,366.94 c 0,0 -10.605,-7.768 -21.064,-9.736 0,0 -5.87,10.298 -4.504,24.222 0,0 11.446,-4.177 23.581,-3.412 0,0 -1.049,-4.466 1.999,-10.768"
         id="path3442"
         inkscape:connector-curvature="0"
         style="fill:#c32026;fill-opacity:1" /></g><g
       id="g3444"
       style="fill:#c32026;fill-opacity:1"><path
         d="m 315.828,392.07 c 0,0 -5.682,11.848 -5.691,22.492 0,0 11.203,3.869 24.639,-0.04 0,0 -6.213,-10.482 -7.703,-22.545 0,0 -4.189,1.85 -10.947,0.023"
         id="path3446"
         inkscape:connector-curvature="0"
         style="fill:#c32026;fill-opacity:1" /></g><g
       id="g3448"
       style="fill:#c32026;fill-opacity:1"><path
         d="m 305.629,381.085 c 0,0 -12.872,2.676 -21.338,9.123 0,0 3.72,11.258 14.977,19.564 0,0 4.563,-11.298 13.251,-19.797 0,0 -4.018,-2.21 -6.656,-8.692"
         id="path3450"
         inkscape:connector-curvature="0"
         style="fill:#c32026;fill-opacity:1" /></g><g
       id="g3452"
       style="fill:#c32026;fill-opacity:1"><path
         d="m 330.545,390.512 c 0,0 5.291,12.03 13.361,18.966 0,0 10.242,-5.979 16.02,-18.713 0,0 -12.002,-2.115 -22.121,-8.848 0,0 -1.332,4.392 -7.121,8.323"
         id="path3454"
         inkscape:connector-curvature="0"
         style="fill:#c32026;fill-opacity:1" /></g><g
       id="g3456"
       style="fill:#c32026;fill-opacity:1"><path
         d="m 338.783,378.66 c 0,0 12.742,3.214 23.176,1.104 0,0 1.566,-11.751 -4.938,-24.142 0,0 -9.039,8.178 -20.564,12.033 0,0 2.648,3.746 2.199,10.729"
         id="path3458"
         inkscape:connector-curvature="0"
         style="fill:#c32026;fill-opacity:1" /></g><g
       id="g3460"
       style="fill:#c32026;fill-opacity:1"><path
         d="m 333.826,364.777 c 0,0 10.527,-7.871 15.465,-17.292 0,0 -8.133,-8.626 -21.852,-11.391 0,0 0.652,12.176 -3.623,23.55 0,0 4.578,0.308 9.713,5.056"
         id="path3462"
         inkscape:connector-curvature="0"
         style="fill:#c32026;fill-opacity:1" /></g><g
       id="g3464"
       style="fill:#c32026;fill-opacity:1"><path
         d="m 320.332,359.528 c 0,0 -0.4,-13.137 -5.287,-22.595 0,0 -11.733,1.713 -21.862,11.362 0,0 10.337,6.454 17.202,16.482 0,0 2.877,-3.572 9.719,-5.049"
         id="path3466"
         inkscape:connector-curvature="0"
         style="fill:#c32026;fill-opacity:1" /></g><g
       id="g3468"
       style="fill:#c32026;fill-opacity:1"><path
         d="m 321.996,393.493 c -9.574,0 -17.365,-7.789 -17.365,-17.362 0,-9.574 7.791,-17.363 17.365,-17.363 9.572,0 17.361,7.789 17.361,17.363 0,9.573 -7.789,17.362 -17.361,17.362 z m 0,-30.726 c -7.369,0 -13.365,5.995 -13.365,13.363 0,7.368 5.996,13.362 13.365,13.362 7.367,0 13.361,-5.994 13.361,-13.362 0,-7.368 -5.994,-13.363 -13.361,-13.363 z"
         id="path3470"
         inkscape:connector-curvature="0"
         style="fill:#c32026;fill-opacity:1" /></g></g></svg>