<?xml version="1.0" encoding="UTF-8" standalone="no"?>
<!-- Created with Inkscape (http://www.inkscape.org/) -->

<svg
   xmlns:dc="http://purl.org/dc/elements/1.1/"
   xmlns:cc="http://creativecommons.org/ns#"
   xmlns:rdf="http://www.w3.org/1999/02/22-rdf-syntax-ns#"
   xmlns:svg="http://www.w3.org/2000/svg"
   xmlns="http://www.w3.org/2000/svg"
   xmlns:sodipodi="http://sodipodi.sourceforge.net/DTD/sodipodi-0.dtd"
   xmlns:inkscape="http://www.inkscape.org/namespaces/inkscape"
   id="svg6909"
   version="1.1"
   inkscape:version="0.91 r13725"
   xml:space="preserve"
   width="40.231251"
   height="29.502501"
   viewBox="0 0 40.231251 29.5025"
   sodipodi:docname="GPU icon.svg"><metadata
     id="metadata6915"><rdf:RDF><cc:Work
         rdf:about=""><dc:format>image/svg+xml</dc:format><dc:type
           rdf:resource="http://purl.org/dc/dcmitype/StillImage" /><dc:title /></cc:Work></rdf:RDF></metadata><defs
     id="defs6913"><clipPath
       clipPathUnits="userSpaceOnUse"
       id="clipPath6939"><path
         d="m 0.003,839.446 701.948,0 0,109.838 -701.948,0 0,-109.838 z"
         id="path6941"
         inkscape:connector-curvature="0" /></clipPath><clipPath
       clipPathUnits="userSpaceOnUse"
       id="clipPath6975"><path
         d="M 0,975 702,975 702,0 0,0 0,975 Z"
         id="path6977"
         inkscape:connector-curvature="0" /></clipPath><clipPath
       clipPathUnits="userSpaceOnUse"
       id="clipPath6991"><path
         d="m 25.567,885.277 -0.863,-1.44 7.323,-13.688 0.862,1.44 0.432,3.319 -7.322,13.688 -0.432,-3.319 z"
         id="path6993"
         inkscape:connector-curvature="0" /></clipPath><clipPath
       clipPathUnits="userSpaceOnUse"
       id="clipPath7003"><path
         d="m 132.677,874.908 0.432,-3.319 0.862,-1.44 7.322,13.688 -0.862,1.44 -0.432,3.319 -7.322,-13.688 z"
         id="path7005"
         inkscape:connector-curvature="0" /></clipPath><clipPath
       clipPathUnits="userSpaceOnUse"
       id="clipPath7015"><path
         d="m 166.567,885.277 -0.863,-1.44 7.322,-13.688 0.863,1.44 0.431,3.319 -7.321,13.688 -0.432,-3.319 z"
         id="path7017"
         inkscape:connector-curvature="0" /></clipPath><clipPath
       clipPathUnits="userSpaceOnUse"
       id="clipPath7027"><path
         d="m 273.677,874.908 0.431,-3.319 0.864,-1.44 7.321,13.688 -0.863,1.44 -0.431,3.319 -7.322,-13.688 z"
         id="path7029"
         inkscape:connector-curvature="0" /></clipPath><clipPath
       clipPathUnits="userSpaceOnUse"
       id="clipPath7039"><path
         d="m 420.781,885.277 -0.864,-1.44 7.322,-13.688 0.863,1.44 0.431,3.319 -7.321,13.688 -0.431,-3.319 z"
         id="path7041"
         inkscape:connector-curvature="0" /></clipPath><clipPath
       clipPathUnits="userSpaceOnUse"
       id="clipPath7051"><path
         d="m 527.891,874.908 0.431,-3.319 0.863,-1.44 7.321,13.688 -0.863,1.44 -0.431,3.319 -7.321,-13.688 z"
         id="path7053"
         inkscape:connector-curvature="0" /></clipPath><clipPath
       clipPathUnits="userSpaceOnUse"
       id="clipPath7063"><path
         d="m 561.781,885.277 -0.863,-1.44 7.321,-13.688 0.863,1.44 0.432,3.319 -7.322,13.688 -0.431,-3.319 z"
         id="path7065"
         inkscape:connector-curvature="0" /></clipPath><clipPath
       clipPathUnits="userSpaceOnUse"
       id="clipPath7075"><path
         d="m 668.891,874.908 0.431,-3.319 0.863,-1.44 7.321,13.688 -0.863,1.44 -0.431,3.319 -7.321,-13.688 z"
         id="path7077"
         inkscape:connector-curvature="0" /></clipPath><clipPath
       clipPathUnits="userSpaceOnUse"
       id="clipPath7087"><path
         d="M 0,975 702,975 702,0 0,0 0,975 Z"
         id="path7089"
         inkscape:connector-curvature="0" /></clipPath><clipPath
       clipPathUnits="userSpaceOnUse"
       id="clipPath7125"><path
         d="M 0,975 702,975 702,0 0,0 0,975 Z"
         id="path7127"
         inkscape:connector-curvature="0" /></clipPath><clipPath
       clipPathUnits="userSpaceOnUse"
       id="clipPath7171"><path
         d="M 0,975 702,975 702,0 0,0 0,975 Z"
         id="path7173"
         inkscape:connector-curvature="0" /></clipPath><clipPath
       clipPathUnits="userSpaceOnUse"
       id="clipPath7197"><path
         d="M 0,975 702,975 702,0 0,0 0,975 Z"
         id="path7199"
         inkscape:connector-curvature="0" /></clipPath><clipPath
       clipPathUnits="userSpaceOnUse"
       id="clipPath7247"><path
         d="M 0,975 702,975 702,0 0,0 0,975 Z"
         id="path7249"
         inkscape:connector-curvature="0" /></clipPath><clipPath
       clipPathUnits="userSpaceOnUse"
       id="clipPath7285"><path
         d="M 0,975 702,975 702,0 0,0 0,975 Z"
         id="path7287"
         inkscape:connector-curvature="0" /></clipPath><clipPath
       clipPathUnits="userSpaceOnUse"
       id="clipPath7299"><path
         d="M 0,975 702,975 702,0 0,0 0,975 Z"
         id="path7301"
         inkscape:connector-curvature="0" /></clipPath><clipPath
       clipPathUnits="userSpaceOnUse"
       id="clipPath7315"><path
         d="M 0,975 702,975 702,0 0,0 0,975 Z"
         id="path7317"
         inkscape:connector-curvature="0" /></clipPath><clipPath
       clipPathUnits="userSpaceOnUse"
       id="clipPath7331"><path
         d="M 0,975 702,975 702,0 0,0 0,975 Z"
         id="path7333"
         inkscape:connector-curvature="0" /></clipPath><clipPath
       clipPathUnits="userSpaceOnUse"
       id="clipPath7353"><path
         d="M 0,975 702,975 702,0 0,0 0,975 Z"
         id="path7355"
         inkscape:connector-curvature="0" /></clipPath><clipPath
       clipPathUnits="userSpaceOnUse"
       id="clipPath7367"><path
         d="M 0,975 702,975 702,0 0,0 0,975 Z"
         id="path7369"
         inkscape:connector-curvature="0" /></clipPath><clipPath
       clipPathUnits="userSpaceOnUse"
       id="clipPath7383"><path
         d="M 0,975 702,975 702,0 0,0 0,975 Z"
         id="path7385"
         inkscape:connector-curvature="0" /></clipPath><clipPath
       clipPathUnits="userSpaceOnUse"
       id="clipPath7543"><path
         d="M 0,975 702,975 702,0 0,0 0,975 Z"
         id="path7545"
         inkscape:connector-curvature="0" /></clipPath><clipPath
       clipPathUnits="userSpaceOnUse"
       id="clipPath7561"><path
         d="M 0,975 702,975 702,0 0,0 0,975 Z"
         id="path7563"
         inkscape:connector-curvature="0" /></clipPath><clipPath
       clipPathUnits="userSpaceOnUse"
       id="clipPath7601"><path
         d="M 0,975 702,975 702,0 0,0 0,975 Z"
         id="path7603"
         inkscape:connector-curvature="0" /></clipPath></defs><sodipodi:namedview
     pagecolor="#ffffff"
     bordercolor="#666666"
     borderopacity="1"
     objecttolerance="10"
     gridtolerance="10"
     guidetolerance="10"
     inkscape:pageopacity="0"
     inkscape:pageshadow="2"
     inkscape:window-width="1873"
     inkscape:window-height="1176"
     id="namedview6911"
     showgrid="false"
     fit-margin-top="0"
     fit-margin-left="0"
     fit-margin-right="0"
     fit-margin-bottom="0"
     inkscape:zoom="1.8495663"
     inkscape:cx="-47.258564"
     inkscape:cy="133.27702"
     inkscape:window-x="1327"
     inkscape:window-y="24"
     inkscape:window-maximized="1"
     inkscape:current-layer="g6917" /><g
     id="g6917"
     inkscape:groupmode="layer"
     inkscape:label="CPU Monitoring4 [Converted]"
     transform="matrix(1.25,0,0,-1.25,-464.73925,920.46888)"><text
       transform="matrix(1,0,0,-1,37.7677,919.5786)"
       style="font-variant:normal;font-weight:bold;font-stretch:condensed;font-size:8.67399979px;font-family:'Myriad Pro';-inkscape-font-specification:SupriaSans-CondBold;writing-mode:lr-tb;fill:#ffffff;fill-opacity:1;fill-rule:nonzero;stroke:none"
       id="text6959"><tspan
         x="0 6.5922399 13.856715 18.033245 25.570951 32.579544 41.106087 47.60725 51.775105 56.671577 60.778717 65.037651 72.575356 78.785942"
         y="0"
         sodipodi:role="line"
         id="tspan6961">PC NAME - INFO</tspan></text>
<text
       transform="matrix(1,0,0,-1,51.6969,885.3919)"
       style="font-variant:normal;font-weight:bold;font-stretch:condensed;font-size:9px;font-family:'Myriad Pro';-inkscape-font-specification:SupriaSans-CondBold;writing-mode:lr-tb;fill:#ffffff;fill-opacity:1;fill-rule:nonzero;stroke:none"
       id="text7115"><tspan
         x="0 4.4369998 9.3059998 13.743 18.216 22.643999 29.879999 31.788 37.655998 42.084 47.591999 51.84 56.313"
         y="0"
         sodipodi:role="line"
         id="tspan7117">SYSTEM HEALTH</tspan><tspan
         x="558.05402 560.20502 566.12701 570.51001"
         y="-0.098999999"
         sodipodi:role="line"
         id="tspan7119">INFO</tspan></text>
<g
       id="g7379"
       transform="translate(-214.4,0)"><g
         id="g7381"
         clip-path="url(#clipPath7383)"
         transform="translate(214.4,0)"><g
           id="g7449"
           transform="translate(384.99,718.6745)"><path
             d="m 0,0 c -0.189,0.212 -0.372,0.435 -0.545,0.668 -1.021,1.173 -1.694,2.876 -1.873,4.764 -0.037,0.404 -0.052,0.71 -0.052,1.003 0,0.294 0.015,0.6 0.047,0.965 0.186,1.927 0.859,3.63 1.901,4.834 0.163,0.218 0.338,0.432 0.522,0.64 l -4.078,0 c -2.369,0 -4.294,-2.89 -4.294,-6.439 C -8.372,2.886 -6.447,0 -4.078,0 L 0,0 Z"
             style="fill:#c32026;fill-opacity:1;fill-rule:evenodd;stroke:none"
             id="path7451"
             inkscape:connector-curvature="0" /></g><g
           id="g7453"
           transform="translate(394.1782,725.6333)"><path
             d="m 0,0 c -0.043,0.082 -0.1,0.152 -0.16,0.22 l -0.139,0.111 c -0.081,0.065 -0.175,0.115 -0.273,0.151 -0.015,0.006 -0.031,0.011 -0.049,0.016 -0.058,0.021 -0.116,0.029 -0.176,0.036 -0.044,0.008 -0.089,0.017 -0.133,0.017 -0.592,0 -1.074,-0.483 -1.074,-1.075 0,-0.513 0.364,-0.942 0.846,-1.047 0.008,0 0.016,-0.003 0.021,-0.003 0.068,-0.016 0.136,-0.021 0.207,-0.021 0.11,0 0.214,0.021 0.314,0.05 l 0.042,0.015 c 0.314,0.113 0.548,0.359 0.655,0.661 0.003,0.01 0.005,0.023 0.01,0.034 l 0.024,0.193 C 0.144,-0.419 0.102,-0.196 0.005,-0.005 0.003,-0.005 0.003,-0.002 0,0"
             style="fill:#c32026;fill-opacity:1;fill-rule:evenodd;stroke:none"
             id="path7455"
             inkscape:connector-curvature="0" /></g><g
           id="g7457"
           transform="translate(397.9468,721.5423)"><path
             d="m 0,0 -0.186,-0.217 -0.285,0.033 c -0.749,0.09 -1.545,0.401 -2.23,0.742 0.208,-0.362 0.457,-0.658 0.692,-0.854 0.249,-0.209 0.367,-0.537 0.304,-0.854 -0.06,-0.314 -0.277,-0.563 -0.581,-0.665 -0.731,-0.246 -1.768,-0.537 -2.565,-0.537 -0.139,0 -0.272,0.011 -0.395,0.029 l -0.28,0.042 -0.124,0.259 c -0.338,0.715 -0.494,1.603 -0.565,2.392 -0.231,-0.391 -0.369,-0.789 -0.422,-1.116 -0.071,-0.438 -0.437,-0.755 -0.877,-0.755 -0.207,0 -0.409,0.076 -0.566,0.212 -0.723,0.613 -1.648,1.506 -1.962,2.274 l -0.107,0.261 0.157,0.239 c 0.508,0.762 1.34,1.435 2.056,1.925 -0.181,0.029 -0.364,0.047 -0.553,0.047 -0.335,0 -0.663,-0.047 -0.945,-0.138 -0.091,-0.032 -0.186,-0.045 -0.28,-0.045 -0.276,0 -0.53,0.123 -0.7,0.338 -0.165,0.21 -0.225,0.482 -0.163,0.744 0.223,0.924 0.598,2.155 1.138,2.781 l 0.185,0.215 0.283,-0.034 c 0.752,-0.086 1.546,-0.398 2.232,-0.739 -0.209,0.362 -0.456,0.655 -0.691,0.854 -0.249,0.21 -0.367,0.537 -0.307,0.854 0.061,0.315 0.281,0.563 0.584,0.665 0.859,0.289 2.145,0.635 2.96,0.509 l 0.28,-0.045 0.123,-0.257 c 0.338,-0.714 0.495,-1.603 0.563,-2.391 0.233,0.391 0.372,0.786 0.424,1.113 0.072,0.438 0.44,0.758 0.878,0.758 0.207,0 0.406,-0.077 0.566,-0.213 C -0.636,7.81 0.289,6.917 0.602,6.153 L 0.71,5.888 0.553,5.653 C 0.042,4.89 -0.788,4.214 -1.503,3.725 c 0.18,-0.029 0.364,-0.048 0.55,-0.048 0.338,0 0.662,0.051 0.948,0.142 C 0.348,3.932 0.744,3.813 0.972,3.526 1.14,3.313 1.197,3.041 1.134,2.779 0.914,1.857 0.538,0.626 0,0 m -2.037,10.006 -5.323,0 c -2.582,-1.069 -4.311,-3.644 -4.311,-6.439 0,-2.795 1.729,-5.366 4.311,-6.435 l 5.323,0 c 2.582,1.069 4.31,3.64 4.31,6.435 0,2.795 -1.728,5.37 -4.31,6.439"
             style="fill:#c32026;fill-opacity:1;fill-rule:evenodd;stroke:none"
             id="path7459"
             inkscape:connector-curvature="0" /></g><g
           id="g7461"
           transform="translate(401.8314,731.5481)"><path
             d="m 0,0 c -0.297,0 -0.537,0.241 -0.537,0.537 0,0.296 0.24,0.534 0.537,0.534 0.296,0 0.537,-0.238 0.537,-0.534 C 0.537,0.241 0.296,0 0,0 m 0,-13.948 c -0.297,0 -0.537,0.241 -0.537,0.537 0,0.296 0.24,0.537 0.537,0.537 0.296,0 0.537,-0.241 0.537,-0.537 0,-0.296 -0.241,-0.537 -0.537,-0.537 m -5.621,0.037 -0.095,-0.037 -5.735,0 -0.095,0.037 c -3.04,1.207 -5.084,4.209 -5.084,7.472 0,3.264 2.044,6.269 5.084,7.474 l 0.095,0.036 5.735,0 0.095,-0.036 c 3.041,-1.205 5.084,-4.21 5.084,-7.474 0,-3.263 -2.043,-6.265 -5.084,-7.472 m -5.644,-2.719 -0.538,0 0,0.537 -1.07,0 0,-0.537 -0.537,0 0,0.537 -1.075,0 0,-0.537 -0.537,0 0,0.537 -1.07,0 0,-0.537 -0.538,0 0,0.537 -1.074,0 0,-0.537 -0.533,0 0,0.537 -1.075,0 0,-0.537 -0.537,0 0,0.537 -1.071,0 0,-0.537 -0.537,0 0,0.537 -1.074,0 0,-0.537 -0.537,0 0,1.074 11.803,0 0,-1.074 z m -15.019,10.191 c 0,4.142 2.405,7.51 5.364,7.51 l 6.863,0 -1.124,-0.946 c -0.487,-0.411 -0.94,-0.896 -1.347,-1.437 -0.924,-1.067 -1.506,-2.557 -1.663,-4.223 -0.034,-0.366 -0.046,-0.641 -0.046,-0.904 0,-0.259 0.012,-0.534 0.041,-0.864 0.162,-1.705 0.747,-3.193 1.645,-4.23 0.43,-0.574 0.883,-1.058 1.37,-1.469 l 1.124,-0.946 -6.863,0 c -2.959,0 -5.364,3.368 -5.364,7.509 m 0,-7.509 c -0.296,0 -0.537,0.241 -0.537,0.537 0,0.296 0.241,0.537 0.537,0.537 0.296,0 0.534,-0.241 0.534,-0.537 0,-0.296 -0.238,-0.537 -0.534,-0.537 m 0,15.019 c 0.296,0 0.534,-0.238 0.534,-0.534 0,-0.296 -0.238,-0.537 -0.534,-0.537 -0.296,0 -0.537,0.241 -0.537,0.537 0,0.296 0.241,0.534 0.537,0.534 m -2.148,-2.145 -0.534,0 0,1.074 0.534,0 0,-1.074 z m 0,-11.266 -0.534,0 0,5.901 0.534,0 0,-5.901 z m 1.074,15.022 0,1.608 c 0,0.296 -0.241,0.537 -0.537,0.537 l -1.608,0 c -0.296,0 -0.537,-0.241 -0.537,-0.537 0,-0.296 0.241,-0.537 0.537,-0.537 l 1.071,0 0,-2.682 -1.608,0 0,-3.216 1.608,0 0,-1.612 -0.534,0 c -0.299,0 -0.537,-0.237 -0.537,-0.536 0,-0.296 0.238,-0.534 0.537,-0.534 l 0.534,0 0,-0.537 -1.608,0 0,-8.047 1.608,0 0,-0.537 -0.534,0 c -0.299,0 -0.537,-0.24 -0.537,-0.537 0,-0.295 0.238,-0.537 0.537,-0.537 l 0.534,0 0,-3.216 c 0,-0.299 0.241,-0.537 0.537,-0.537 0.296,0 0.537,0.238 0.537,0.537 l 0,2.682 3.219,0 0,-2.148 13.948,0 0,2.148 12.336,0 0,18.238 -29.503,0 z"
             style="fill:#c32026;fill-opacity:1;fill-rule:evenodd;stroke:none"
             id="path7463"
             inkscape:connector-curvature="0" /></g><g
           id="g7469"
           transform="translate(74.7641,381.0753)" /></g></g></g></svg>