<?xml version="1.0" encoding="UTF-8" standalone="no"?>
<!-- Created with Inkscape (http://www.inkscape.org/) -->

<svg
   xmlns:dc="http://purl.org/dc/elements/1.1/"
   xmlns:cc="http://creativecommons.org/ns#"
   xmlns:rdf="http://www.w3.org/1999/02/22-rdf-syntax-ns#"
   xmlns:svg="http://www.w3.org/2000/svg"
   xmlns="http://www.w3.org/2000/svg"
   xmlns:sodipodi="http://sodipodi.sourceforge.net/DTD/sodipodi-0.dtd"
   xmlns:inkscape="http://www.inkscape.org/namespaces/inkscape"
   id="svg6909"
   version="1.1"
   inkscape:version="0.91 r13725"
   xml:space="preserve"
   width="38.389999"
   height="33.91"
   viewBox="0 0 38.39 33.909999"
   sodipodi:docname="MB icon.svg"><metadata
     id="metadata6915"><rdf:RDF><cc:Work
         rdf:about=""><dc:format>image/svg+xml</dc:format><dc:type
           rdf:resource="http://purl.org/dc/dcmitype/StillImage" /><dc:title /></cc:Work></rdf:RDF></metadata><defs
     id="defs6913"><clipPath
       clipPathUnits="userSpaceOnUse"
       id="clipPath6939"><path
         d="m 0.003,839.446 701.948,0 0,109.838 -701.948,0 0,-109.838 z"
         id="path6941"
         inkscape:connector-curvature="0" /></clipPath><clipPath
       clipPathUnits="userSpaceOnUse"
       id="clipPath6975"><path
         d="M 0,975 702,975 702,0 0,0 0,975 Z"
         id="path6977"
         inkscape:connector-curvature="0" /></clipPath><clipPath
       clipPathUnits="userSpaceOnUse"
       id="clipPath6991"><path
         d="m 25.567,885.277 -0.863,-1.44 7.323,-13.688 0.862,1.44 0.432,3.319 -7.322,13.688 -0.432,-3.319 z"
         id="path6993"
         inkscape:connector-curvature="0" /></clipPath><clipPath
       clipPathUnits="userSpaceOnUse"
       id="clipPath7003"><path
         d="m 132.677,874.908 0.432,-3.319 0.862,-1.44 7.322,13.688 -0.862,1.44 -0.432,3.319 -7.322,-13.688 z"
         id="path7005"
         inkscape:connector-curvature="0" /></clipPath><clipPath
       clipPathUnits="userSpaceOnUse"
       id="clipPath7015"><path
         d="m 166.567,885.277 -0.863,-1.44 7.322,-13.688 0.863,1.44 0.431,3.319 -7.321,13.688 -0.432,-3.319 z"
         id="path7017"
         inkscape:connector-curvature="0" /></clipPath><clipPath
       clipPathUnits="userSpaceOnUse"
       id="clipPath7027"><path
         d="m 273.677,874.908 0.431,-3.319 0.864,-1.44 7.321,13.688 -0.863,1.44 -0.431,3.319 -7.322,-13.688 z"
         id="path7029"
         inkscape:connector-curvature="0" /></clipPath><clipPath
       clipPathUnits="userSpaceOnUse"
       id="clipPath7039"><path
         d="m 420.781,885.277 -0.864,-1.44 7.322,-13.688 0.863,1.44 0.431,3.319 -7.321,13.688 -0.431,-3.319 z"
         id="path7041"
         inkscape:connector-curvature="0" /></clipPath><clipPath
       clipPathUnits="userSpaceOnUse"
       id="clipPath7051"><path
         d="m 527.891,874.908 0.431,-3.319 0.863,-1.44 7.321,13.688 -0.863,1.44 -0.431,3.319 -7.321,-13.688 z"
         id="path7053"
         inkscape:connector-curvature="0" /></clipPath><clipPath
       clipPathUnits="userSpaceOnUse"
       id="clipPath7063"><path
         d="m 561.781,885.277 -0.863,-1.44 7.321,-13.688 0.863,1.44 0.432,3.319 -7.322,13.688 -0.431,-3.319 z"
         id="path7065"
         inkscape:connector-curvature="0" /></clipPath><clipPath
       clipPathUnits="userSpaceOnUse"
       id="clipPath7075"><path
         d="m 668.891,874.908 0.431,-3.319 0.863,-1.44 7.321,13.688 -0.863,1.44 -0.431,3.319 -7.321,-13.688 z"
         id="path7077"
         inkscape:connector-curvature="0" /></clipPath><clipPath
       clipPathUnits="userSpaceOnUse"
       id="clipPath7087"><path
         d="M 0,975 702,975 702,0 0,0 0,975 Z"
         id="path7089"
         inkscape:connector-curvature="0" /></clipPath><clipPath
       clipPathUnits="userSpaceOnUse"
       id="clipPath7125"><path
         d="M 0,975 702,975 702,0 0,0 0,975 Z"
         id="path7127"
         inkscape:connector-curvature="0" /></clipPath><clipPath
       clipPathUnits="userSpaceOnUse"
       id="clipPath7171"><path
         d="M 0,975 702,975 702,0 0,0 0,975 Z"
         id="path7173"
         inkscape:connector-curvature="0" /></clipPath><clipPath
       clipPathUnits="userSpaceOnUse"
       id="clipPath7197"><path
         d="M 0,975 702,975 702,0 0,0 0,975 Z"
         id="path7199"
         inkscape:connector-curvature="0" /></clipPath><clipPath
       clipPathUnits="userSpaceOnUse"
       id="clipPath7247"><path
         d="M 0,975 702,975 702,0 0,0 0,975 Z"
         id="path7249"
         inkscape:connector-curvature="0" /></clipPath><clipPath
       clipPathUnits="userSpaceOnUse"
       id="clipPath7285"><path
         d="M 0,975 702,975 702,0 0,0 0,975 Z"
         id="path7287"
         inkscape:connector-curvature="0" /></clipPath><clipPath
       clipPathUnits="userSpaceOnUse"
       id="clipPath7299"><path
         d="M 0,975 702,975 702,0 0,0 0,975 Z"
         id="path7301"
         inkscape:connector-curvature="0" /></clipPath><clipPath
       clipPathUnits="userSpaceOnUse"
       id="clipPath7315"><path
         d="M 0,975 702,975 702,0 0,0 0,975 Z"
         id="path7317"
         inkscape:connector-curvature="0" /></clipPath><clipPath
       clipPathUnits="userSpaceOnUse"
       id="clipPath7331"><path
         d="M 0,975 702,975 702,0 0,0 0,975 Z"
         id="path7333"
         inkscape:connector-curvature="0" /></clipPath><clipPath
       clipPathUnits="userSpaceOnUse"
       id="clipPath7353"><path
         d="M 0,975 702,975 702,0 0,0 0,975 Z"
         id="path7355"
         inkscape:connector-curvature="0" /></clipPath><clipPath
       clipPathUnits="userSpaceOnUse"
       id="clipPath7367"><path
         d="M 0,975 702,975 702,0 0,0 0,975 Z"
         id="path7369"
         inkscape:connector-curvature="0" /></clipPath><clipPath
       clipPathUnits="userSpaceOnUse"
       id="clipPath7383"><path
         d="M 0,975 702,975 702,0 0,0 0,975 Z"
         id="path7385"
         inkscape:connector-curvature="0" /></clipPath><clipPath
       clipPathUnits="userSpaceOnUse"
       id="clipPath7543"><path
         d="M 0,975 702,975 702,0 0,0 0,975 Z"
         id="path7545"
         inkscape:connector-curvature="0" /></clipPath><clipPath
       clipPathUnits="userSpaceOnUse"
       id="clipPath7561"><path
         d="M 0,975 702,975 702,0 0,0 0,975 Z"
         id="path7563"
         inkscape:connector-curvature="0" /></clipPath><clipPath
       clipPathUnits="userSpaceOnUse"
       id="clipPath7601"><path
         d="M 0,975 702,975 702,0 0,0 0,975 Z"
         id="path7603"
         inkscape:connector-curvature="0" /></clipPath></defs><sodipodi:namedview
     pagecolor="#ffffff"
     bordercolor="#666666"
     borderopacity="1"
     objecttolerance="10"
     gridtolerance="10"
     guidetolerance="10"
     inkscape:pageopacity="0"
     inkscape:pageshadow="2"
     inkscape:window-width="1873"
     inkscape:window-height="1176"
     id="namedview6911"
     showgrid="false"
     fit-margin-top="0"
     fit-margin-left="0"
     fit-margin-right="0"
     fit-margin-bottom="0"
     inkscape:zoom="0.89760836"
     inkscape:cx="377.4635"
     inkscape:cy="-248.8997"
     inkscape:window-x="1327"
     inkscape:window-y="24"
     inkscape:window-maximized="1"
     inkscape:current-layer="g7381" /><g
     id="g6917"
     inkscape:groupmode="layer"
     inkscape:label="CPU Monitoring4 [Converted]"
     transform="matrix(1.25,0,0,-1.25,-61.3315,717.98812)"><text
       transform="matrix(1,0,0,-1,37.7677,919.5786)"
       style="font-variant:normal;font-weight:bold;font-stretch:condensed;font-size:8.67399979px;font-family:'Myriad Pro';-inkscape-font-specification:SupriaSans-CondBold;writing-mode:lr-tb;fill:#ffffff;fill-opacity:1;fill-rule:nonzero;stroke:none"
       id="text6959"><tspan
         x="0 6.5922399 13.856715 18.033245 25.570951 32.579544 41.106087 47.60725 51.775105 56.671577 60.778717 65.037651 72.575356 78.785942"
         y="0"
         sodipodi:role="line"
         id="tspan6961">PC NAME - INFO</tspan></text>
<text
       transform="matrix(1,0,0,-1,205.4092,884.3666)"
       style="font-variant:normal;font-weight:bold;font-stretch:condensed;font-size:9px;font-family:'Myriad Pro';-inkscape-font-specification:SupriaSans-CondBold;writing-mode:lr-tb;fill:#ffffff;fill-opacity:1;fill-rule:nonzero;stroke:none"
       id="text6983"><tspan
         x="0 4.2480001 6.3990002 12.213 18.080999 22.554001 24.705 30.627001 262.50299 266.88599 272.39401 278.31601"
         y="0"
         sodipodi:role="line"
         id="tspan6985">LIGHTINGFANS</tspan></text>
<text
       transform="matrix(1,0,0,-1,51.6969,885.3919)"
       style="font-variant:normal;font-weight:bold;font-stretch:condensed;font-size:9px;font-family:'Myriad Pro';-inkscape-font-specification:SupriaSans-CondBold;writing-mode:lr-tb;fill:#ffffff;fill-opacity:1;fill-rule:nonzero;stroke:none"
       id="text7115"><tspan
         x="0 4.4369998 9.3059998 13.743 18.216 22.643999 29.879999 31.788 37.655998 42.084 47.591999 51.84 56.313"
         y="0"
         sodipodi:role="line"
         id="tspan7117">SYSTEM HEALTH</tspan><tspan
         x="558.05402 560.20502 566.12701 570.51001"
         y="-0.098999999"
         sodipodi:role="line"
         id="tspan7119">INFO</tspan></text>
<g
       id="g7379"
       transform="translate(-214.4,0)"><g
         id="g7381"
         clip-path="url(#clipPath7383)"
         transform="translate(214.4,0)"><path
           d="m 64.934,552.381 9.212,0 0,1.022 -9.212,0 0,-1.022 z"
           style="fill:#c32026;fill-opacity:1;fill-rule:evenodd;stroke:none"
           id="path7477"
           inkscape:connector-curvature="0" /><path
           d="m 56.231,550.844 2.047,0 0,2.559 -2.047,0 0,-2.559 z"
           style="fill:#c32026;fill-opacity:1;fill-rule:evenodd;stroke:none"
           id="path7479"
           inkscape:connector-curvature="0" /><path
           d="m 64.934,550.331 9.212,0 0,1.025 -9.212,0 0,-1.025 z"
           style="fill:#c32026;fill-opacity:1;fill-rule:evenodd;stroke:none"
           id="path7481"
           inkscape:connector-curvature="0" /><path
           d="m 63.396,552.381 0.512,0 0,1.022 -0.512,0 0,-1.022 z"
           style="fill:#c32026;fill-opacity:1;fill-rule:evenodd;stroke:none"
           id="path7483"
           inkscape:connector-curvature="0" /><path
           d="m 75.171,554.427 0.512,0 0,1.022 -0.512,0 0,-1.022 z"
           style="fill:#c32026;fill-opacity:1;fill-rule:evenodd;stroke:none"
           id="path7485"
           inkscape:connector-curvature="0" /><path
           d="m 75.171,552.381 0.512,0 0,1.022 -0.512,0 0,-1.022 z"
           style="fill:#c32026;fill-opacity:1;fill-rule:evenodd;stroke:none"
           id="path7487"
           inkscape:connector-curvature="0" /><g
           id="g7489"
           transform="translate(66.9804,564.1529)"><path
             d="m 0,0 1.025,0 0,0.513 -1.025,0 0,1.021 1.025,0 0,0.513 -1.025,0 0,1.025 1.025,0 0,1.022 1.022,0 0,1.024 1.025,0 0,-1.024 0.512,0 0,1.024 1.022,0 0,-1.024 0.513,0 0,1.024 1.025,0 0,-1.024 1.021,0 0,-1.022 1.026,0 0,-1.025 -1.026,0 0,-0.513 1.026,0 0,-1.021 -1.026,0 0,-0.513 1.026,0 0,-1.025 -1.026,0 0,-1.022 -1.021,0 0,-1.025 -1.025,0 0,1.025 -0.513,0 0,-1.025 -1.022,0 0,1.025 -0.512,0 0,-1.025 -1.025,0 0,1.025 -1.022,0 0,1.022 L 0,-1.025 0,0 Z m -0.15,-3.584 8.488,0 c 0.2,0 0.365,0.165 0.365,0.365 l 0,8.487 c 0,0.201 -0.165,0.363 -0.365,0.363 l -8.488,0 c -0.2,0 -0.362,-0.162 -0.362,-0.363 l 0,-8.487 c 0,-0.2 0.162,-0.365 0.362,-0.365"
             style="fill:#c32026;fill-opacity:1;fill-rule:evenodd;stroke:none"
             id="path7491"
             inkscape:connector-curvature="0" /></g><path
           d="m 63.396,554.427 0.512,0 0,1.022 -0.512,0 0,-1.022 z"
           style="fill:#c32026;fill-opacity:1;fill-rule:evenodd;stroke:none"
           id="path7493"
           inkscape:connector-curvature="0" /><path
           d="m 53.671,558.522 1.537,0 0,1.537 -1.537,0 0,-1.537 z"
           style="fill:#c32026;fill-opacity:1;fill-rule:evenodd;stroke:none"
           id="path7495"
           inkscape:connector-curvature="0" /><path
           d="m 75.171,556.475 0.512,0 0,1.025 -0.512,0 0,-1.025 z"
           style="fill:#c32026;fill-opacity:1;fill-rule:evenodd;stroke:none"
           id="path7497"
           inkscape:connector-curvature="0" /><path
           d="m 63.396,556.475 0.512,0 0,1.025 -0.512,0 0,-1.025 z"
           style="fill:#c32026;fill-opacity:1;fill-rule:evenodd;stroke:none"
           id="path7499"
           inkscape:connector-curvature="0" /><g
           id="g7501"
           transform="translate(77.7302,566.1995)"><path
             d="m 0,0 c -0.283,0 -0.513,0.231 -0.513,0.513 0,0.282 0.23,0.512 0.513,0.512 0.282,0 0.512,-0.23 0.512,-0.512 C 0.512,0.231 0.282,0 0,0 m 0,-3.581 c -0.283,0 -0.513,0.227 -0.513,0.509 0,0.283 0.23,0.513 0.513,0.513 0.282,0 0.512,-0.23 0.512,-0.513 0,-0.282 -0.23,-0.509 -0.512,-0.509 m -0.513,-7.169 c 0.283,0 0.513,-0.227 0.513,-0.509 0,-0.285 -0.23,-0.512 -0.513,-0.512 l -0.512,0 0,-1.026 0.512,0 c 0.283,0 0.513,-0.226 0.513,-0.512 0,-0.282 -0.23,-0.509 -0.513,-0.509 l -0.512,0 0,-1.025 0.512,0 c 0.283,0 0.513,-0.23 0.513,-0.513 0,-0.282 -0.23,-0.512 -0.513,-0.512 l -0.512,0 0,-1.022 -14.331,0 0,1.022 -0.512,0 c -0.283,0 -0.513,0.23 -0.513,0.512 0,0.283 0.23,0.513 0.513,0.513 l 0.512,0 0,1.025 -0.512,0 c -0.283,0 -0.513,0.227 -0.513,0.509 0,0.286 0.23,0.512 0.513,0.512 l 0.512,0 0,1.026 -0.512,0 c -0.283,0 -0.513,0.227 -0.513,0.512 0,0.282 0.23,0.509 0.513,0.509 l 0.512,0 0,1.026 -0.512,0 c -0.283,0 -0.513,0.229 -0.513,0.512 0,0.282 0.23,0.512 0.513,0.512 l 0.512,0 0,1.022 14.331,0 0,-1.022 0.512,0 C -0.23,-8.7 0,-8.93 0,-9.212 0,-9.495 -0.23,-9.724 -0.513,-9.724 l -0.512,0 0,-1.026 0.512,0 z m -15.355,9.728 c 0.282,0 0.512,-0.23 0.512,-0.512 0,-0.283 -0.23,-0.513 -0.512,-0.513 -0.283,0 -0.513,0.23 -0.513,0.513 0,0.282 0.23,0.512 0.513,0.512 m 0,2.047 c 0.282,0 0.512,-0.23 0.512,-0.512 0,-0.282 -0.23,-0.513 -0.512,-0.513 -0.283,0 -0.513,0.231 -0.513,0.513 0,0.282 0.23,0.512 0.513,0.512 m 1.534,-6.656 c 0.283,0 0.512,-0.227 0.512,-0.509 0,-0.283 -0.229,-0.513 -0.512,-0.513 -0.282,0 -0.509,0.23 -0.509,0.513 0,0.282 0.227,0.509 0.509,0.509 m 0,1.537 c 0.283,0 0.512,-0.23 0.512,-0.512 0,-0.282 -0.229,-0.512 -0.512,-0.512 -0.282,0 -0.509,0.23 -0.509,0.512 0,0.282 0.227,0.512 0.509,0.512 m 0,1.535 c 0.283,0 0.512,-0.23 0.512,-0.513 0,-0.282 -0.229,-0.509 -0.512,-0.509 -0.282,0 -0.509,0.227 -0.509,0.509 0,0.283 0.227,0.513 0.509,0.513 m 0,1.537 c 0.283,0 0.512,-0.23 0.512,-0.512 0,-0.283 -0.229,-0.513 -0.512,-0.513 -0.282,0 -0.509,0.23 -0.509,0.513 0,0.282 0.227,0.512 0.509,0.512 m 0,1.535 c 0.283,0 0.512,-0.23 0.512,-0.513 0,-0.282 -0.229,-0.512 -0.512,-0.512 -0.282,0 -0.509,0.23 -0.509,0.512 0,0.283 0.227,0.513 0.509,0.513 m 0,1.534 c 0.283,0 0.512,-0.227 0.512,-0.509 0,-0.283 -0.229,-0.513 -0.512,-0.513 -0.282,0 -0.509,0.23 -0.509,0.513 0,0.282 0.227,0.509 0.509,0.509 m 2.05,1.175 c 0,0.765 0.619,1.384 1.384,1.384 l 8.488,0 c 0.765,0 1.387,-0.619 1.387,-1.384 l 0,-8.488 c 0,-0.765 -0.622,-1.387 -1.387,-1.387 l -8.488,0 c -0.765,0 -1.384,0.622 -1.384,1.387 l 0,8.488 z m 1.022,3.943 1.025,0 0,-0.509 -1.025,0 0,0.509 z m 2.047,0 1.025,0 0,-0.509 -1.025,0 0,0.509 z m 2.05,0 1.022,0 0,-0.509 -1.022,0 0,0.509 z m 2.047,0 1.022,0 0,-0.509 -1.022,0 0,0.509 z m 2.046,0 1.025,0 0,-0.509 -1.025,0 0,0.509 z m -14.331,-13.305 -1.025,0 0,-0.513 c 0,-0.283 -0.229,-0.512 -0.513,-0.512 -0.282,0 -0.512,0.229 -0.512,0.512 l 0,0.513 -1.021,0 0,11.771 3.071,0 0,-11.771 z m -2.05,-4.097 c 0,0.283 0.23,0.513 0.512,0.513 0.284,0 0.513,-0.23 0.513,-0.513 0,-0.282 -0.229,-0.513 -0.513,-0.513 -0.282,0 -0.512,0.231 -0.512,0.513 m 1.538,-4.094 c 0.282,0 0.512,-0.23 0.512,-0.512 0,-0.282 -0.23,-0.513 -0.512,-0.513 l -0.513,0 0,-1.022 -4.093,0 0,1.022 -0.513,0 c -0.283,0 -0.512,0.231 -0.512,0.513 0,0.282 0.229,0.512 0.512,0.512 l 0.513,0 0,0.513 -0.513,0 c -0.283,0 -0.512,0.227 -0.512,0.509 0,0.286 0.229,0.512 0.512,0.512 l 0.513,0 0,1.026 4.093,0 0,-1.026 0.513,0 c 0.282,0 0.512,-0.226 0.512,-0.512 0,-0.282 -0.23,-0.509 -0.512,-0.509 l -0.513,0 0,-0.513 0.513,0 z m -3.585,4.094 c 0,-0.282 -0.229,-0.513 -0.512,-0.513 -0.282,0 -0.509,0.231 -0.509,0.513 0,0.283 0.227,0.513 0.509,0.513 0.283,0 0.512,-0.23 0.512,-0.513 m -3.581,5.119 3.581,0 0,-3.581 -3.581,0 0,3.581 z m 0.51,10.749 3.071,0 0,-8.703 -1.021,0 0,-0.509 c 0,-0.285 -0.23,-0.513 -0.513,-0.513 -0.283,0 -0.512,0.228 -0.512,0.513 l 0,0.509 -1.025,0 0,8.703 z m 4.097,-15.355 c 0.282,0 0.512,-0.23 0.512,-0.513 0,-0.282 -0.23,-0.513 -0.512,-0.513 -0.283,0 -0.513,0.231 -0.513,0.513 0,0.283 0.23,0.513 0.513,0.513 m -6.144,5.118 c -0.283,0 -0.513,0.23 -0.513,0.512 0,0.283 0.23,0.513 0.513,0.513 0.283,0 0.512,-0.23 0.512,-0.513 0,-0.282 -0.229,-0.512 -0.512,-0.512 m 0,-1.534 c -0.283,0 -0.513,0.227 -0.513,0.509 0,0.283 0.23,0.513 0.513,0.513 0.283,0 0.512,-0.23 0.512,-0.513 0,-0.282 -0.229,-0.509 -0.512,-0.509 m 0,-1.538 c -0.283,0 -0.513,0.231 -0.513,0.513 0,0.282 0.23,0.512 0.513,0.512 0.283,0 0.512,-0.23 0.512,-0.512 0,-0.282 -0.229,-0.513 -0.512,-0.513 m 27.13,14.334 0,0.509 c 0,0.286 -0.23,0.513 -0.512,0.513 -0.283,0 -0.513,-0.227 -0.513,-0.513 l 0,-0.509 -0.512,0 0,1.535 -11.259,0 0,-1.535 -0.512,0 0,0.509 c 0,0.286 -0.231,0.513 -0.513,0.513 -0.282,0 -0.513,-0.227 -0.513,-0.513 l 0,-0.509 -0.512,0 0,0.509 c 0,0.286 -0.227,0.513 -0.509,0.513 -0.283,0 -0.513,-0.227 -0.513,-0.513 l 0,-0.509 -13.309,0 0,-2.559 2.047,0 c 0.283,0 0.512,-0.23 0.512,-0.512 0,-0.283 -0.229,-0.513 -0.512,-0.513 l -2.047,0 0,-0.513 2.047,0 c 0.283,0 0.512,-0.227 0.512,-0.512 0,-0.282 -0.229,-0.509 -0.512,-0.509 l -2.047,0 0,-0.513 2.047,0 c 0.283,0 0.512,-0.23 0.512,-0.512 C -26.106,0.231 -26.335,0 -26.618,0 l -2.047,0 0,-10.237 2.047,0 c 0.283,0 0.512,-0.227 0.512,-0.513 0,-0.282 -0.229,-0.509 -0.512,-0.509 l -2.047,0 0,-0.512 2.047,0 c 0.283,0 0.512,-0.231 0.512,-0.513 0,-0.282 -0.229,-0.513 -0.512,-0.513 l -2.047,0 0,-0.512 2.047,0 c 0.283,0 0.512,-0.227 0.512,-0.509 0,-0.286 -0.229,-0.513 -0.512,-0.513 l -2.047,0 0,-0.512 2.047,0 c 0.283,0 0.512,-0.23 0.512,-0.513 0,-0.282 -0.229,-0.512 -0.512,-0.512 l -2.047,0 0,-0.51 2.047,0 c 0.283,0 0.512,-0.23 0.512,-0.512 0,-0.283 -0.229,-0.513 -0.512,-0.513 l -2.047,0 0,-1.534 30.712,0 0,25.593 -1.535,0 z"
             style="fill:#c32026;fill-opacity:1;fill-rule:evenodd;stroke:none"
             id="path7503"
             inkscape:connector-curvature="0" /></g><path
           d="m 54.184,564.153 1.025,0 0,6.653 -1.025,0 0,-6.653 z"
           style="fill:#c32026;fill-opacity:1;fill-rule:evenodd;stroke:none"
           id="path7505"
           inkscape:connector-curvature="0" /><path
           d="m 58.277,561.081 1.025,0 0,9.725 -1.025,0 0,-9.725 z"
           style="fill:#c32026;fill-opacity:1;fill-rule:evenodd;stroke:none"
           id="path7507"
           inkscape:connector-curvature="0" /><path
           d="m 75.171,550.331 0.512,0 0,1.025 -0.512,0 0,-1.025 z"
           style="fill:#c32026;fill-opacity:1;fill-rule:evenodd;stroke:none"
           id="path7509"
           inkscape:connector-curvature="0" /><path
           d="m 64.934,554.427 9.212,0 0,1.022 -9.212,0 0,-1.022 z"
           style="fill:#c32026;fill-opacity:1;fill-rule:evenodd;stroke:none"
           id="path7511"
           inkscape:connector-curvature="0" /><path
           d="m 63.396,550.331 0.512,0 0,1.025 -0.512,0 0,-1.025 z"
           style="fill:#c32026;fill-opacity:1;fill-rule:evenodd;stroke:none"
           id="path7513"
           inkscape:connector-curvature="0" /><path
           d="m 64.934,556.475 9.212,0 0,1.025 -9.212,0 0,-1.025 z"
           style="fill:#c32026;fill-opacity:1;fill-rule:evenodd;stroke:none"
           id="path7515"
           inkscape:connector-curvature="0" /><path
           d="m 69.027,563.128 4.096,0 0,4.096 -4.096,0 0,-4.096 z"
           style="fill:#c32026;fill-opacity:1;fill-rule:evenodd;stroke:none"
           id="path7517"
           inkscape:connector-curvature="0" /></g></g></g></svg>