<?xml version="1.0" encoding="UTF-8" standalone="no"?>
<!-- Created with Inkscape (http://www.inkscape.org/) -->

<svg
   xmlns:dc="http://purl.org/dc/elements/1.1/"
   xmlns:cc="http://creativecommons.org/ns#"
   xmlns:rdf="http://www.w3.org/1999/02/22-rdf-syntax-ns#"
   xmlns:svg="http://www.w3.org/2000/svg"
   xmlns="http://www.w3.org/2000/svg"
   xmlns:sodipodi="http://sodipodi.sourceforge.net/DTD/sodipodi-0.dtd"
   xmlns:inkscape="http://www.inkscape.org/namespaces/inkscape"
   id="svg6909"
   version="1.1"
   inkscape:version="0.91 r13725"
   xml:space="preserve"
   width="40.231564"
   height="40.231564"
   viewBox="0 0 40.231564 40.231563"
   sodipodi:docname="RAM icon.svg"><metadata
     id="metadata6915"><rdf:RDF><cc:Work
         rdf:about=""><dc:format>image/svg+xml</dc:format><dc:type
           rdf:resource="http://purl.org/dc/dcmitype/StillImage" /><dc:title /></cc:Work></rdf:RDF></metadata><defs
     id="defs6913"><clipPath
       clipPathUnits="userSpaceOnUse"
       id="clipPath6939"><path
         d="m 0.003,839.446 701.948,0 0,109.838 -701.948,0 0,-109.838 z"
         id="path6941"
         inkscape:connector-curvature="0" /></clipPath><clipPath
       clipPathUnits="userSpaceOnUse"
       id="clipPath6975"><path
         d="M 0,975 702,975 702,0 0,0 0,975 Z"
         id="path6977"
         inkscape:connector-curvature="0" /></clipPath><clipPath
       clipPathUnits="userSpaceOnUse"
       id="clipPath6991"><path
         d="m 25.567,885.277 -0.863,-1.44 7.323,-13.688 0.862,1.44 0.432,3.319 -7.322,13.688 -0.432,-3.319 z"
         id="path6993"
         inkscape:connector-curvature="0" /></clipPath><clipPath
       clipPathUnits="userSpaceOnUse"
       id="clipPath7003"><path
         d="m 132.677,874.908 0.432,-3.319 0.862,-1.44 7.322,13.688 -0.862,1.44 -0.432,3.319 -7.322,-13.688 z"
         id="path7005"
         inkscape:connector-curvature="0" /></clipPath><clipPath
       clipPathUnits="userSpaceOnUse"
       id="clipPath7015"><path
         d="m 166.567,885.277 -0.863,-1.44 7.322,-13.688 0.863,1.44 0.431,3.319 -7.321,13.688 -0.432,-3.319 z"
         id="path7017"
         inkscape:connector-curvature="0" /></clipPath><clipPath
       clipPathUnits="userSpaceOnUse"
       id="clipPath7027"><path
         d="m 273.677,874.908 0.431,-3.319 0.864,-1.44 7.321,13.688 -0.863,1.44 -0.431,3.319 -7.322,-13.688 z"
         id="path7029"
         inkscape:connector-curvature="0" /></clipPath><clipPath
       clipPathUnits="userSpaceOnUse"
       id="clipPath7039"><path
         d="m 420.781,885.277 -0.864,-1.44 7.322,-13.688 0.863,1.44 0.431,3.319 -7.321,13.688 -0.431,-3.319 z"
         id="path7041"
         inkscape:connector-curvature="0" /></clipPath><clipPath
       clipPathUnits="userSpaceOnUse"
       id="clipPath7051"><path
         d="m 527.891,874.908 0.431,-3.319 0.863,-1.44 7.321,13.688 -0.863,1.44 -0.431,3.319 -7.321,-13.688 z"
         id="path7053"
         inkscape:connector-curvature="0" /></clipPath><clipPath
       clipPathUnits="userSpaceOnUse"
       id="clipPath7063"><path
         d="m 561.781,885.277 -0.863,-1.44 7.321,-13.688 0.863,1.44 0.432,3.319 -7.322,13.688 -0.431,-3.319 z"
         id="path7065"
         inkscape:connector-curvature="0" /></clipPath><clipPath
       clipPathUnits="userSpaceOnUse"
       id="clipPath7075"><path
         d="m 668.891,874.908 0.431,-3.319 0.863,-1.44 7.321,13.688 -0.863,1.44 -0.431,3.319 -7.321,-13.688 z"
         id="path7077"
         inkscape:connector-curvature="0" /></clipPath><clipPath
       clipPathUnits="userSpaceOnUse"
       id="clipPath7087"><path
         d="M 0,975 702,975 702,0 0,0 0,975 Z"
         id="path7089"
         inkscape:connector-curvature="0" /></clipPath><clipPath
       clipPathUnits="userSpaceOnUse"
       id="clipPath7125"><path
         d="M 0,975 702,975 702,0 0,0 0,975 Z"
         id="path7127"
         inkscape:connector-curvature="0" /></clipPath><clipPath
       clipPathUnits="userSpaceOnUse"
       id="clipPath7171"><path
         d="M 0,975 702,975 702,0 0,0 0,975 Z"
         id="path7173"
         inkscape:connector-curvature="0" /></clipPath><clipPath
       clipPathUnits="userSpaceOnUse"
       id="clipPath7197"><path
         d="M 0,975 702,975 702,0 0,0 0,975 Z"
         id="path7199"
         inkscape:connector-curvature="0" /></clipPath><clipPath
       clipPathUnits="userSpaceOnUse"
       id="clipPath7247"><path
         d="M 0,975 702,975 702,0 0,0 0,975 Z"
         id="path7249"
         inkscape:connector-curvature="0" /></clipPath><clipPath
       clipPathUnits="userSpaceOnUse"
       id="clipPath7285"><path
         d="M 0,975 702,975 702,0 0,0 0,975 Z"
         id="path7287"
         inkscape:connector-curvature="0" /></clipPath><clipPath
       clipPathUnits="userSpaceOnUse"
       id="clipPath7299"><path
         d="M 0,975 702,975 702,0 0,0 0,975 Z"
         id="path7301"
         inkscape:connector-curvature="0" /></clipPath><clipPath
       clipPathUnits="userSpaceOnUse"
       id="clipPath7315"><path
         d="M 0,975 702,975 702,0 0,0 0,975 Z"
         id="path7317"
         inkscape:connector-curvature="0" /></clipPath><clipPath
       clipPathUnits="userSpaceOnUse"
       id="clipPath7331"><path
         d="M 0,975 702,975 702,0 0,0 0,975 Z"
         id="path7333"
         inkscape:connector-curvature="0" /></clipPath><clipPath
       clipPathUnits="userSpaceOnUse"
       id="clipPath7353"><path
         d="M 0,975 702,975 702,0 0,0 0,975 Z"
         id="path7355"
         inkscape:connector-curvature="0" /></clipPath><clipPath
       clipPathUnits="userSpaceOnUse"
       id="clipPath7367"><path
         d="M 0,975 702,975 702,0 0,0 0,975 Z"
         id="path7369"
         inkscape:connector-curvature="0" /></clipPath><clipPath
       clipPathUnits="userSpaceOnUse"
       id="clipPath7383"><path
         d="M 0,975 702,975 702,0 0,0 0,975 Z"
         id="path7385"
         inkscape:connector-curvature="0" /></clipPath><clipPath
       clipPathUnits="userSpaceOnUse"
       id="clipPath7543"><path
         d="M 0,975 702,975 702,0 0,0 0,975 Z"
         id="path7545"
         inkscape:connector-curvature="0" /></clipPath><clipPath
       clipPathUnits="userSpaceOnUse"
       id="clipPath7561"><path
         d="M 0,975 702,975 702,0 0,0 0,975 Z"
         id="path7563"
         inkscape:connector-curvature="0" /></clipPath><clipPath
       clipPathUnits="userSpaceOnUse"
       id="clipPath7601"><path
         d="M 0,975 702,975 702,0 0,0 0,975 Z"
         id="path7603"
         inkscape:connector-curvature="0" /></clipPath></defs><sodipodi:namedview
     pagecolor="#ffffff"
     bordercolor="#666666"
     borderopacity="1"
     objecttolerance="10"
     gridtolerance="10"
     guidetolerance="10"
     inkscape:pageopacity="0"
     inkscape:pageshadow="2"
     inkscape:window-width="1873"
     inkscape:window-height="1176"
     id="namedview6911"
     showgrid="false"
     fit-margin-top="0"
     fit-margin-left="0"
     fit-margin-right="0"
     fit-margin-bottom="0"
     inkscape:zoom="1.8495663"
     inkscape:cx="-47.257754"
     inkscape:cy="238.30152"
     inkscape:window-x="1327"
     inkscape:window-y="24"
     inkscape:window-maximized="1"
     inkscape:current-layer="g6917" /><g
     id="g6917"
     inkscape:groupmode="layer"
     inkscape:label="CPU Monitoring4 [Converted]"
     transform="matrix(1.25,0,0,-1.25,-464.73844,721.14894)"><text
       transform="matrix(1,0,0,-1,37.7677,919.5786)"
       style="font-variant:normal;font-weight:bold;font-stretch:condensed;font-size:8.67399979px;font-family:'Myriad Pro';-inkscape-font-specification:SupriaSans-CondBold;writing-mode:lr-tb;fill:#ffffff;fill-opacity:1;fill-rule:nonzero;stroke:none"
       id="text6959"><tspan
         x="0 6.5922399 13.856715 18.033245 25.570951 32.579544 41.106087 47.60725 51.775105 56.671577 60.778717 65.037651 72.575356 78.785942"
         y="0"
         sodipodi:role="line"
         id="tspan6961">PC NAME - INFO</tspan></text>
<text
       transform="matrix(1,0,0,-1,205.4092,884.3666)"
       style="font-variant:normal;font-weight:bold;font-stretch:condensed;font-size:9px;font-family:'Myriad Pro';-inkscape-font-specification:SupriaSans-CondBold;writing-mode:lr-tb;fill:#ffffff;fill-opacity:1;fill-rule:nonzero;stroke:none"
       id="text6983"><tspan
         x="0 4.2480001 6.3990002 12.213 18.080999 22.554001 24.705 30.627001 262.50299 266.88599 272.39401 278.31601"
         y="0"
         sodipodi:role="line"
         id="tspan6985">LIGHTINGFANS</tspan></text>
<text
       transform="matrix(1,0,0,-1,51.6969,885.3919)"
       style="font-variant:normal;font-weight:bold;font-stretch:condensed;font-size:9px;font-family:'Myriad Pro';-inkscape-font-specification:SupriaSans-CondBold;writing-mode:lr-tb;fill:#ffffff;fill-opacity:1;fill-rule:nonzero;stroke:none"
       id="text7115"><tspan
         x="0 4.4369998 9.3059998 13.743 18.216 22.643999 29.879999 31.788 37.655998 42.084 47.591999 51.84 56.313"
         y="0"
         sodipodi:role="line"
         id="tspan7117">SYSTEM HEALTH</tspan><tspan
         x="558.05402 560.20502 566.12701 570.51001"
         y="-0.098999999"
         sodipodi:role="line"
         id="tspan7119">INFO</tspan></text>
<g
       id="g7597"><g
         id="g7599"
         clip-path="url(#clipPath7601)"><g
           id="g7605"
           transform="translate(395.31,567.9649)"><path
             d="m 0,0 c 0.025,-0.061 0.039,-0.121 0.039,-0.183 0.002,-0.062 -0.01,-0.121 -0.033,-0.181 -0.024,-0.059 -0.06,-0.113 -0.108,-0.16 l -0.772,-0.773 -0.705,0.705 0.799,0.799 c 0.045,0.046 0.096,0.077 0.153,0.096 0.056,0.019 0.114,0.026 0.175,0.021 0.06,-0.005 0.12,-0.022 0.181,-0.049 C -0.211,0.247 -0.157,0.21 -0.109,0.162 -0.061,0.114 -0.026,0.06 0,0 m -2.665,0.494 0.716,0.716 c 0.083,0.083 0.183,0.123 0.3,0.119 0.117,-0.004 0.227,-0.058 0.33,-0.161 C -1.214,1.063 -1.161,0.949 -1.163,0.827 -1.164,0.705 -1.209,0.601 -1.297,0.513 L -1.99,-0.181 -2.665,0.494 Z m 1.998,0.279 c 0.198,0.108 0.401,0.148 0.606,0.12 C 0.146,0.865 0.337,0.764 0.513,0.588 0.626,0.475 0.702,0.353 0.743,0.222 0.783,0.092 0.792,-0.043 0.771,-0.179 0.749,-0.316 0.702,-0.452 0.628,-0.586 0.553,-0.721 0.457,-0.846 0.339,-0.965 L -0.954,-2.258 -3.63,0.418 -2.198,1.85 c 0.094,0.094 0.198,0.158 0.313,0.193 0.116,0.035 0.232,0.047 0.349,0.035 0.117,-0.01 0.23,-0.043 0.341,-0.095 0.111,-0.053 0.207,-0.121 0.29,-0.204 0.131,-0.131 0.221,-0.286 0.27,-0.466 0.049,-0.179 0.038,-0.359 -0.032,-0.54 m -3.076,-3.068 0.969,0.968 1.375,-1.376 -0.429,-0.429 -0.301,0.301 c 0,-0.427 -0.142,-0.782 -0.427,-1.066 -0.175,-0.176 -0.376,-0.306 -0.601,-0.39 -0.224,-0.085 -0.455,-0.122 -0.693,-0.113 -0.238,0.008 -0.473,0.063 -0.707,0.164 -0.233,0.1 -0.447,0.247 -0.641,0.44 -0.183,0.184 -0.323,0.39 -0.418,0.619 -0.096,0.228 -0.146,0.462 -0.151,0.7 -0.005,0.239 0.036,0.474 0.123,0.703 0.086,0.23 0.222,0.438 0.409,0.625 0.251,0.25 0.519,0.414 0.804,0.487 0.286,0.075 0.563,0.068 0.831,-0.02 l -0.101,-0.675 c -0.201,0.065 -0.398,0.072 -0.59,0.021 -0.192,-0.052 -0.36,-0.149 -0.503,-0.292 -0.114,-0.113 -0.193,-0.241 -0.24,-0.383 -0.047,-0.142 -0.062,-0.287 -0.045,-0.437 0.017,-0.15 0.06,-0.297 0.132,-0.441 0.071,-0.145 0.168,-0.277 0.288,-0.398 0.126,-0.125 0.264,-0.222 0.413,-0.292 0.15,-0.069 0.299,-0.109 0.45,-0.119 0.151,-0.009 0.298,0.011 0.441,0.061 0.144,0.05 0.272,0.132 0.385,0.244 0.259,0.259 0.371,0.615 0.335,1.067 l -0.188,0.189 -0.539,-0.539 -0.381,0.381 z m 10.06,0.993 -0.56,-0.56 -0.823,0.823 0.56,0.56 0.823,-0.823 z m -1.12,-1.12 -0.56,-0.56 -0.823,0.823 0.56,0.561 0.823,-0.824 z m -1.12,-1.12 -0.56,-0.561 -0.824,0.824 0.561,0.561 0.823,-0.824 z m -1.12,-1.12 -0.56,-0.56 -0.824,0.823 0.56,0.56 0.824,-0.823 z m -1.121,-1.121 -0.56,-0.56 -0.823,0.824 0.56,0.56 0.823,-0.824 z m -1.12,-1.12 -0.56,-0.56 -0.824,0.823 0.561,0.561 0.823,-0.824 z m -1.12,-1.12 -0.56,-0.56 -0.824,0.823 0.561,0.56 0.823,-0.823 z m -1.12,-1.12 -0.561,-0.56 -0.823,0.823 0.561,0.56 0.823,-0.823 z m -13.156,-7.974 -3.925,3.925 L -1.374,4.04 2.551,0.115 -14.68,-17.117 Z m 9.818,4.636 -0.56,-0.56 -0.823,0.824 0.56,0.56 0.823,-0.824 z m -1.12,-1.12 -0.56,-0.56 -0.823,0.823 0.56,0.561 0.823,-0.824 z m -1.12,-1.12 -0.56,-0.56 -0.824,0.823 0.561,0.561 0.823,-0.824 z m -1.12,-1.12 -0.56,-0.56 -0.824,0.823 0.56,0.56 0.824,-0.823 z m -1.12,-1.12 -0.56,-0.561 -0.824,0.824 0.56,0.56 0.824,-0.823 z m -1.121,-1.121 -0.56,-0.56 -0.823,0.824 0.56,0.56 0.823,-0.824 z m -1.12,-1.12 -0.56,-0.56 -0.824,0.823 0.56,0.56 0.824,-0.823 z m -1.12,-1.12 -0.561,-0.561 -0.823,0.824 0.561,0.56 0.823,-0.823 z M 6.054,0.082 6.614,0.642 7.437,-0.182 6.878,-0.742 6.054,0.082 Z m -19.877,-21.524 -0.561,-0.561 -0.823,0.824 0.56,0.56 0.824,-0.823 z M 0.108,8.859 -23.424,-14.673 c -0.127,-0.126 -0.127,-0.331 0,-0.457 l 2.24,-2.241 c 0.127,-0.126 0.331,-0.126 0.458,0 l 0.984,0.984 c 0.277,0.278 0.728,0.278 1.006,0 0.277,-0.277 0.277,-0.728 0,-1.005 l -0.985,-0.984 c -0.126,-0.127 -0.125,-0.332 0,-0.458 l 0.869,-0.869 c 0.127,-0.126 0.331,-0.126 0.458,0 l 0.984,0.984 c 0.277,0.278 0.729,0.277 1.006,0 0.278,-0.277 0.278,-0.728 0,-1.006 l -0.984,-0.984 c -0.126,-0.126 -0.127,-0.331 0,-0.457 l 1.097,-1.097 c 0.126,-0.127 0.331,-0.126 0.457,0 l 0.968,-0.968 11.233,11.233 -0.968,0.968 1.066,1.066 0.968,-0.968 L 8.666,0.3 7.698,1.269 c 0.126,0.126 0.127,0.331 0,0.457 L 6.601,2.823 C 6.475,2.949 6.27,2.949 6.144,2.823 L 5.16,1.839 C 4.882,1.562 4.431,1.561 4.154,1.839 3.876,2.116 3.876,2.568 4.153,2.845 l 0.985,0.984 c 0.126,0.127 0.126,0.331 0,0.458 L 4.269,5.156 c -0.126,0.125 -0.331,0.126 -0.458,0 L 2.827,4.171 C 2.55,3.894 2.098,3.893 1.821,4.171 1.544,4.448 1.544,4.9 1.822,5.177 l 0.984,0.984 c 0.126,0.126 0.126,0.331 0,0.458 l -2.241,2.24 c -0.126,0.127 -0.331,0.127 -0.457,0"
             style="fill:#c32026;fill-opacity:1;fill-rule:evenodd;stroke:none"
             id="path7607"
             inkscape:connector-curvature="0" /></g></g></g></g></svg>