<?xml version="1.0" encoding="UTF-8" standalone="no"?>
<!-- Generator: Adobe Illustrator 16.0.3, SVG Export Plug-In . SVG Version: 6.00 Build 0)  -->

<svg
   xmlns:dc="http://purl.org/dc/elements/1.1/"
   xmlns:cc="http://creativecommons.org/ns#"
   xmlns:rdf="http://www.w3.org/1999/02/22-rdf-syntax-ns#"
   xmlns:svg="http://www.w3.org/2000/svg"
   xmlns="http://www.w3.org/2000/svg"
   xmlns:sodipodi="http://sodipodi.sourceforge.net/DTD/sodipodi-0.dtd"
   xmlns:inkscape="http://www.inkscape.org/namespaces/inkscape"
   version="1.1"
   id="Layer_1"
   x="0px"
   y="0px"
   width="41.944706"
   height="41.943691"
   viewBox="0 0 41.944706 41.943692"
   enable-background="new 0 0 612 792"
   xml:space="preserve"
   inkscape:version="0.91 r13725"
   sodipodi:docname="mouse-icon.svg"><metadata
     id="metadata3835"><rdf:RDF><cc:Work
         rdf:about=""><dc:format>image/svg+xml</dc:format><dc:type
           rdf:resource="http://purl.org/dc/dcmitype/StillImage" /><dc:title></dc:title></cc:Work></rdf:RDF></metadata><defs
     id="defs3833" /><sodipodi:namedview
     pagecolor="#ffffff"
     bordercolor="#000000"
     borderopacity="0"
     objecttolerance="10"
     gridtolerance="10"
     guidetolerance="10"
     inkscape:pageopacity="0"
     inkscape:pageshadow="2"
     inkscape:window-width="1873"
     inkscape:window-height="1176"
     id="namedview3831"
     showgrid="false"
     fit-margin-top="0"
     fit-margin-left="0"
     fit-margin-right="0"
     fit-margin-bottom="0"
     inkscape:zoom="9.3383592"
     inkscape:cx="2.6068708"
     inkscape:cy="39.336878"
     inkscape:window-x="47"
     inkscape:window-y="24"
     inkscape:window-maximized="1"
     inkscape:current-layer="Layer_1" /><g
     id="g3825"
     transform="matrix(0.53313436,0,0,0.53313436,-130.47841,-159.10649)"
     style="fill:#c32026;fill-opacity:1"><path
       d="m 303.445,321.581 c -0.453,0.454 -1.188,0.454 -1.643,0 l -1.547,-1.547 c -0.453,-0.453 -0.453,-1.189 0,-1.643 l 7.141,-7.14 c 0.453,-0.454 1.188,-0.454 1.643,0 l 1.547,1.547 c 0.453,0.454 0.453,1.189 0,1.643 l -7.141,7.14 z"
       id="path3827"
       inkscape:connector-curvature="0"
       style="fill:#c32026;fill-opacity:1" /><path
       d="m 295.196,360.122 c 3.582,-4.887 15.74,-15.244 17.224,-17.051 1.377,-1.678 10.994,-18.373 10.994,-18.373 l -4.11,-14.299 -16.217,16.216 -3.922,-3.921 -0.011,-0.011 -3.921,-3.921 16.216,-16.216 -14.298,-4.11 c 0,0 -16.696,9.616 -18.374,10.993 -1.807,1.483 -12.164,13.642 -17.051,17.224 -4.576,3.354 -11.949,5.974 -15.549,16.531 -5.403,15.851 6.135,25.899 6.379,26.109 0.21,0.244 10.258,11.781 26.108,6.378 10.559,-3.6 13.179,-10.973 16.532,-15.549 z m -2.126,-34.524 c 0.454,-0.454 1.189,-0.454 1.644,0 l 1.547,1.547 c 0.453,0.453 0.453,1.189 0,1.643 l -4.144,4.143 -3.189,-3.189 4.142,-4.144 z m -5.977,5.979 3.189,3.189 -4.144,4.144 c -0.453,0.454 -1.189,0.454 -1.643,0 l -1.547,-1.547 c -0.454,-0.454 -0.454,-1.189 0,-1.643 l 4.145,-4.143 z m -29.816,27.822 c -1.36,-2.726 -1.537,-5.73 -0.729,-8.435 0.878,-2.943 2.922,-5.532 5.887,-7.012 1.002,-0.5 1.553,-0.658 2.565,-0.889 1.36,-0.311 1.562,-0.271 2.34,0.07 3.287,1.438 5.204,3.806 6.618,6.837 -2.12,-3.167 -6.313,-4.339 -9.813,-2.591 -1.95,0.973 -3.303,2.664 -3.903,4.593 -0.067,0.22 -0.126,0.443 -0.176,0.668 -1.405,5.155 1.14,10.488 5.831,13.002 -3.591,-0.533 -6.874,-2.75 -8.62,-6.243 z m 12.334,-4.444 c -0.329,1.067 -1.459,1.665 -2.527,1.336 -1.066,-0.329 -1.665,-1.46 -1.336,-2.527 0.329,-1.067 1.461,-1.664 2.526,-1.336 1.068,0.329 1.666,1.461 1.337,2.527 z m 3.108,9.614 c -1.136,0.567 -1.98,0.83 -3.27,1.059 -0.593,0.107 -0.901,0.116 -1.064,0.072 -3.767,-1.027 -6.297,-4.499 -7.586,-7.812 1.953,3.66 6.476,5.12 10.209,3.255 1.9,-0.949 3.236,-2.579 3.857,-4.447 0.128,-0.419 0.286,-1.167 0.286,-1.167 1.139,-5.129 -1.559,-10.339 -6.331,-12.685 3.757,0.414 7.235,2.666 9.049,6.298 1.382,2.767 1.543,5.822 0.693,8.559 -0.001,0.003 -0.003,0.006 -0.004,0.009 -10e-4,0.003 -10e-4,0.007 -0.002,0.009 l -0.002,0.001 c -0.903,2.876 -2.925,5.396 -5.835,6.849 z"
       id="path3829"
       inkscape:connector-curvature="0"
       style="fill:#c32026;fill-opacity:1" /></g></svg>