<?xml version="1.0" encoding="UTF-8" standalone="no"?>
<!-- Created with Inkscape (http://www.inkscape.org/) -->

<svg
   xmlns:dc="http://purl.org/dc/elements/1.1/"
   xmlns:cc="http://creativecommons.org/ns#"
   xmlns:rdf="http://www.w3.org/1999/02/22-rdf-syntax-ns#"
   xmlns:svg="http://www.w3.org/2000/svg"
   xmlns="http://www.w3.org/2000/svg"
   xmlns:sodipodi="http://sodipodi.sourceforge.net/DTD/sodipodi-0.dtd"
   xmlns:inkscape="http://www.inkscape.org/namespaces/inkscape"
   id="svg6909"
   version="1.1"
   inkscape:version="0.91 r13725"
   xml:space="preserve"
   width="46.610577"
   height="30.612499"
   viewBox="0 0 46.610577 30.612499"
   sodipodi:docname="laptop icon.svg"><metadata
     id="metadata6915"><rdf:RDF><cc:Work
         rdf:about=""><dc:format>image/svg+xml</dc:format><dc:type
           rdf:resource="http://purl.org/dc/dcmitype/StillImage" /><dc:title /></cc:Work></rdf:RDF></metadata><defs
     id="defs6913"><clipPath
       clipPathUnits="userSpaceOnUse"
       id="clipPath6939"><path
         d="m 0.003,839.446 701.948,0 0,109.838 -701.948,0 0,-109.838 z"
         id="path6941"
         inkscape:connector-curvature="0" /></clipPath><clipPath
       clipPathUnits="userSpaceOnUse"
       id="clipPath6975"><path
         d="M 0,975 702,975 702,0 0,0 0,975 Z"
         id="path6977"
         inkscape:connector-curvature="0" /></clipPath><clipPath
       clipPathUnits="userSpaceOnUse"
       id="clipPath6991"><path
         d="m 25.567,885.277 -0.863,-1.44 7.323,-13.688 0.862,1.44 0.432,3.319 -7.322,13.688 -0.432,-3.319 z"
         id="path6993"
         inkscape:connector-curvature="0" /></clipPath><clipPath
       clipPathUnits="userSpaceOnUse"
       id="clipPath7003"><path
         d="m 132.677,874.908 0.432,-3.319 0.862,-1.44 7.322,13.688 -0.862,1.44 -0.432,3.319 -7.322,-13.688 z"
         id="path7005"
         inkscape:connector-curvature="0" /></clipPath><clipPath
       clipPathUnits="userSpaceOnUse"
       id="clipPath7015"><path
         d="m 166.567,885.277 -0.863,-1.44 7.322,-13.688 0.863,1.44 0.431,3.319 -7.321,13.688 -0.432,-3.319 z"
         id="path7017"
         inkscape:connector-curvature="0" /></clipPath><clipPath
       clipPathUnits="userSpaceOnUse"
       id="clipPath7027"><path
         d="m 273.677,874.908 0.431,-3.319 0.864,-1.44 7.321,13.688 -0.863,1.44 -0.431,3.319 -7.322,-13.688 z"
         id="path7029"
         inkscape:connector-curvature="0" /></clipPath><clipPath
       clipPathUnits="userSpaceOnUse"
       id="clipPath7039"><path
         d="m 420.781,885.277 -0.864,-1.44 7.322,-13.688 0.863,1.44 0.431,3.319 -7.321,13.688 -0.431,-3.319 z"
         id="path7041"
         inkscape:connector-curvature="0" /></clipPath><clipPath
       clipPathUnits="userSpaceOnUse"
       id="clipPath7051"><path
         d="m 527.891,874.908 0.431,-3.319 0.863,-1.44 7.321,13.688 -0.863,1.44 -0.431,3.319 -7.321,-13.688 z"
         id="path7053"
         inkscape:connector-curvature="0" /></clipPath><clipPath
       clipPathUnits="userSpaceOnUse"
       id="clipPath7063"><path
         d="m 561.781,885.277 -0.863,-1.44 7.321,-13.688 0.863,1.44 0.432,3.319 -7.322,13.688 -0.431,-3.319 z"
         id="path7065"
         inkscape:connector-curvature="0" /></clipPath><clipPath
       clipPathUnits="userSpaceOnUse"
       id="clipPath7075"><path
         d="m 668.891,874.908 0.431,-3.319 0.863,-1.44 7.321,13.688 -0.863,1.44 -0.431,3.319 -7.321,-13.688 z"
         id="path7077"
         inkscape:connector-curvature="0" /></clipPath><clipPath
       clipPathUnits="userSpaceOnUse"
       id="clipPath7087"><path
         d="M 0,975 702,975 702,0 0,0 0,975 Z"
         id="path7089"
         inkscape:connector-curvature="0" /></clipPath><clipPath
       clipPathUnits="userSpaceOnUse"
       id="clipPath7125"><path
         d="M 0,975 702,975 702,0 0,0 0,975 Z"
         id="path7127"
         inkscape:connector-curvature="0" /></clipPath><clipPath
       clipPathUnits="userSpaceOnUse"
       id="clipPath7171"><path
         d="M 0,975 702,975 702,0 0,0 0,975 Z"
         id="path7173"
         inkscape:connector-curvature="0" /></clipPath><clipPath
       clipPathUnits="userSpaceOnUse"
       id="clipPath7197"><path
         d="M 0,975 702,975 702,0 0,0 0,975 Z"
         id="path7199"
         inkscape:connector-curvature="0" /></clipPath><clipPath
       clipPathUnits="userSpaceOnUse"
       id="clipPath7247"><path
         d="M 0,975 702,975 702,0 0,0 0,975 Z"
         id="path7249"
         inkscape:connector-curvature="0" /></clipPath><clipPath
       clipPathUnits="userSpaceOnUse"
       id="clipPath7285"><path
         d="M 0,975 702,975 702,0 0,0 0,975 Z"
         id="path7287"
         inkscape:connector-curvature="0" /></clipPath><clipPath
       clipPathUnits="userSpaceOnUse"
       id="clipPath7299"><path
         d="M 0,975 702,975 702,0 0,0 0,975 Z"
         id="path7301"
         inkscape:connector-curvature="0" /></clipPath><clipPath
       clipPathUnits="userSpaceOnUse"
       id="clipPath7315"><path
         d="M 0,975 702,975 702,0 0,0 0,975 Z"
         id="path7317"
         inkscape:connector-curvature="0" /></clipPath><clipPath
       clipPathUnits="userSpaceOnUse"
       id="clipPath7331"><path
         d="M 0,975 702,975 702,0 0,0 0,975 Z"
         id="path7333"
         inkscape:connector-curvature="0" /></clipPath><clipPath
       clipPathUnits="userSpaceOnUse"
       id="clipPath7353"><path
         d="M 0,975 702,975 702,0 0,0 0,975 Z"
         id="path7355"
         inkscape:connector-curvature="0" /></clipPath><clipPath
       clipPathUnits="userSpaceOnUse"
       id="clipPath7367"><path
         d="M 0,975 702,975 702,0 0,0 0,975 Z"
         id="path7369"
         inkscape:connector-curvature="0" /></clipPath><clipPath
       clipPathUnits="userSpaceOnUse"
       id="clipPath7383"><path
         d="M 0,975 702,975 702,0 0,0 0,975 Z"
         id="path7385"
         inkscape:connector-curvature="0" /></clipPath><clipPath
       clipPathUnits="userSpaceOnUse"
       id="clipPath7543"><path
         d="M 0,975 702,975 702,0 0,0 0,975 Z"
         id="path7545"
         inkscape:connector-curvature="0" /></clipPath><clipPath
       clipPathUnits="userSpaceOnUse"
       id="clipPath7561"><path
         d="M 0,975 702,975 702,0 0,0 0,975 Z"
         id="path7563"
         inkscape:connector-curvature="0" /></clipPath><clipPath
       clipPathUnits="userSpaceOnUse"
       id="clipPath7601"><path
         d="M 0,975 702,975 702,0 0,0 0,975 Z"
         id="path7603"
         inkscape:connector-curvature="0" /></clipPath></defs><sodipodi:namedview
     pagecolor="#ffffff"
     bordercolor="#666666"
     borderopacity="1"
     objecttolerance="10"
     gridtolerance="10"
     guidetolerance="10"
     inkscape:pageopacity="0"
     inkscape:pageshadow="2"
     inkscape:window-width="1873"
     inkscape:window-height="1176"
     id="namedview6911"
     showgrid="false"
     fit-margin-top="0"
     fit-margin-left="0"
     fit-margin-right="0"
     fit-margin-bottom="0"
     inkscape:zoom="0.89760836"
     inkscape:cx="381.57375"
     inkscape:cy="-412.99599"
     inkscape:window-x="1327"
     inkscape:window-y="24"
     inkscape:window-maximized="1"
     inkscape:current-layer="g7381" /><g
     id="g6917"
     inkscape:groupmode="layer"
     inkscape:label="CPU Monitoring4 [Converted]"
     transform="matrix(1.25,0,0,-1.25,-57.22125,1022.3687)"><text
       transform="matrix(1,0,0,-1,37.7677,919.5786)"
       style="font-variant:normal;font-weight:bold;font-stretch:condensed;font-size:8.67399979px;font-family:'Myriad Pro';-inkscape-font-specification:SupriaSans-CondBold;writing-mode:lr-tb;fill:#ffffff;fill-opacity:1;fill-rule:nonzero;stroke:none"
       id="text6959"><tspan
         x="0 6.5922399 13.856715 18.033245 25.570951 32.579544 41.106087 47.60725 51.775105 56.671577 60.778717 65.037651 72.575356 78.785942"
         y="0"
         sodipodi:role="line"
         id="tspan6961">PC NAME - INFO</tspan></text>
<text
       transform="matrix(1,0,0,-1,205.4092,884.3666)"
       style="font-variant:normal;font-weight:bold;font-stretch:condensed;font-size:9px;font-family:'Myriad Pro';-inkscape-font-specification:SupriaSans-CondBold;writing-mode:lr-tb;fill:#ffffff;fill-opacity:1;fill-rule:nonzero;stroke:none"
       id="text6983"><tspan
         x="0 4.2480001 6.3990002 12.213 18.080999 22.554001 24.705 30.627001 262.50299 266.88599 272.39401 278.31601"
         y="0"
         sodipodi:role="line"
         id="tspan6985">LIGHTINGFANS</tspan></text>
<text
       transform="matrix(1,0,0,-1,51.6969,885.3919)"
       style="font-variant:normal;font-weight:bold;font-stretch:condensed;font-size:9px;font-family:'Myriad Pro';-inkscape-font-specification:SupriaSans-CondBold;writing-mode:lr-tb;fill:#ffffff;fill-opacity:1;fill-rule:nonzero;stroke:none"
       id="text7115"><tspan
         x="0 4.4369998 9.3059998 13.743 18.216 22.643999 29.879999 31.788 37.655998 42.084 47.591999 51.84 56.313"
         y="0"
         sodipodi:role="line"
         id="tspan7117">SYSTEM HEALTH</tspan><tspan
         x="558.05402 560.20502 566.12701 570.51001"
         y="-0.098999999"
         sodipodi:role="line"
         id="tspan7119">INFO</tspan></text>
<g
       id="g7379"
       transform="translate(-214.4,0)"><g
         id="g7381"
         clip-path="url(#clipPath7383)"
         transform="translate(214.4,0)"><path
           d="m 67.197,794.601 -5.553,0 0,1.277 5.553,0 0,-1.277 z m 15.823,2.408 c -0.036,0.041 -0.088,0.066 -0.144,0.066 l -36.91,0 c -0.055,0 -0.107,-0.025 -0.142,-0.066 -0.03,-0.035 -0.046,-0.077 -0.047,-0.121 l 0,-0.008 c 0,-0.007 10e-4,-0.015 0.002,-0.022 0.006,-0.036 0.563,-3.453 4.884,-3.453 l 27.517,0 c 4.322,0 4.878,3.417 4.883,3.453 0.009,0.054 -0.007,0.108 -0.043,0.151"
           style="fill:#c32026;fill-opacity:1;fill-rule:evenodd;stroke:none"
           id="path7465"
           inkscape:connector-curvature="0" /><path
           d="m 51.715,815.214 25.412,0 0,-14.131 -25.412,0 0,14.131 z m -1.914,-16.812 29.241,0 c 0.422,0 0.766,0.344 0.766,0.766 l 0,17.961 c 0,0.422 -0.344,0.766 -0.766,0.766 l -29.241,0 c -0.423,0 -0.767,-0.344 -0.767,-0.766 l 0,-17.961 c 0,-0.422 0.344,-0.766 0.767,-0.766"
           style="fill:#c32026;fill-opacity:1;fill-rule:evenodd;stroke:none"
           id="path7467"
           inkscape:connector-curvature="0" /></g></g></g></svg>