<?xml version="1.0" encoding="UTF-8" standalone="no"?>
<!-- Svg Vector Icons : http://www.onlinewebfonts.com/icon -->

<svg
   xmlns:dc="http://purl.org/dc/elements/1.1/"
   xmlns:cc="http://creativecommons.org/ns#"
   xmlns:rdf="http://www.w3.org/1999/02/22-rdf-syntax-ns#"
   xmlns:svg="http://www.w3.org/2000/svg"
   xmlns="http://www.w3.org/2000/svg"
   xmlns:sodipodi="http://sodipodi.sourceforge.net/DTD/sodipodi-0.dtd"
   xmlns:inkscape="http://www.inkscape.org/namespaces/inkscape"
   version="1.1"
   x="0px"
   y="0px"
   viewBox="0 0 43.765034 42"
   enable-background="new 0 0 1000 1000"
   xml:space="preserve"
   id="svg2"
   inkscape:version="0.91 r13725"
   sodipodi:docname="RPM 42px.svg"
   width="43.765034"
   height="42"><defs
     id="defs14" /><sodipodi:namedview
     pagecolor="#ffffff"
     bordercolor="#000000"
     borderopacity="0"
     objecttolerance="10"
     gridtolerance="10"
     guidetolerance="10"
     inkscape:pageopacity="0"
     inkscape:pageshadow="2"
     inkscape:window-width="751"
     inkscape:window-height="480"
     id="namedview12"
     showgrid="false"
     fit-margin-top="0"
     fit-margin-left="0"
     fit-margin-right="0"
     fit-margin-bottom="0"
     inkscape:zoom="5.4152821"
     inkscape:cx="21.882517"
     inkscape:cy="21"
     inkscape:window-x="1886"
     inkscape:window-y="237"
     inkscape:window-maximized="0"
     inkscape:current-layer="svg2" /><metadata
     id="metadata4"> Svg Vector Icons : http://www.onlinewebfonts.com/icon <rdf:RDF><cc:Work
     rdf:about=""><dc:format>image/svg+xml</dc:format><dc:type
       rdf:resource="http://purl.org/dc/dcmitype/StillImage" /><dc:title></dc:title></cc:Work></rdf:RDF></metadata><g
     id="g6"
     style="fill:#c32026;fill-opacity:1"
     transform="matrix(0.04465945,0,0,0.04465945,-0.44659717,-1.3275642)"><path
       d="M 510.7,894.2 C 309.7,904.3 128,765.1 92.1,563.9 61.2,390.5 148.1,223.8 295.7,143.5 l 0,164.5 c 0,13.8 11.3,25 25.3,25 l 25.3,0 c 14,0 25.3,-11.2 25.3,-25 l 0,-225.4 0,-25 c 0,-13.8 -11.3,-25 -25.3,-25 l -25.3,0 -227.7,0 c -14,0 -25.3,11.2 -25.3,25 l 0,25 c 0,13.8 11.3,25 25.3,25 l 117.2,0 C 65.2,211 -15.8,390.8 17.4,576.9 60.5,819.1 281.6,985.9 524,969 l -13.3,-74.8 z"
       id="path8"
       style="fill:#c32026;fill-opacity:1"
       inkscape:connector-curvature="0" /><path
       d="m 874.4,890.6 -81.5,0 C 936.3,786.3 1015.6,608.3 982.5,424.2 938.9,181.3 715,14 469.6,30.9 l 13.5,75 C 686.6,95.9 870.6,235.4 906.9,437.2 940.1,622 838.7,799.2 672,873 l 0,-182.7 c 0,-13.8 -11.3,-25 -25.3,-25 l -25.3,0 c -14,0 -25.3,11.2 -25.3,25 l 0,225.4 0,25.1 c 0,13.8 11.3,25 25.3,25 l 25.3,0 227.7,0 c 14,0 25.3,-11.2 25.3,-25 l 0,-25.1 c 0,-13.9 -11.3,-25.1 -25.3,-25.1 z"
       id="path10"
       style="fill:#c32026;fill-opacity:1"
       inkscape:connector-curvature="0" /></g></svg>