<?xml version="1.0" encoding="UTF-8" standalone="no"?>
<!-- Generator: Adobe Illustrator 16.0.3, SVG Export Plug-In . SVG Version: 6.00 Build 0)  -->

<svg
   xmlns:dc="http://purl.org/dc/elements/1.1/"
   xmlns:cc="http://creativecommons.org/ns#"
   xmlns:rdf="http://www.w3.org/1999/02/22-rdf-syntax-ns#"
   xmlns:svg="http://www.w3.org/2000/svg"
   xmlns="http://www.w3.org/2000/svg"
   xmlns:sodipodi="http://sodipodi.sourceforge.net/DTD/sodipodi-0.dtd"
   xmlns:inkscape="http://www.inkscape.org/namespaces/inkscape"
   version="1.1"
   id="Layer_1"
   x="0px"
   y="0px"
   width="42.028355"
   height="28.648554"
   viewBox="0 0 42.028354 28.648556"
   enable-background="new 0 0 612 792"
   xml:space="preserve"
   inkscape:version="0.91 r13725"
   sodipodi:docname="system-icon.svg"><metadata
     id="metadata3727"><rdf:RDF><cc:Work
         rdf:about=""><dc:format>image/svg+xml</dc:format><dc:type
           rdf:resource="http://purl.org/dc/dcmitype/StillImage" /><dc:title></dc:title></cc:Work></rdf:RDF></metadata><defs
     id="defs3725" /><sodipodi:namedview
     pagecolor="#ffffff"
     bordercolor="#000000"
     borderopacity="0"
     objecttolerance="10"
     gridtolerance="10"
     guidetolerance="10"
     inkscape:pageopacity="0"
     inkscape:pageshadow="2"
     inkscape:window-width="1920"
     inkscape:window-height="1176"
     id="namedview3723"
     showgrid="false"
     fit-margin-top="0"
     fit-margin-left="0"
     fit-margin-right="0"
     fit-margin-bottom="0"
     inkscape:zoom="10.857345"
     inkscape:cx="-0.58713269"
     inkscape:cy="29.940818"
     inkscape:window-x="1920"
     inkscape:window-y="24"
     inkscape:window-maximized="1"
     inkscape:current-layer="Layer_1" /><g
     id="g3702"
     transform="matrix(0.49311121,0,0,0.42337559,-135.06957,-146.89101)"
     style="fill:#c32026;fill-opacity:1"><g
       id="g3704"
       style="fill:#c32026;fill-opacity:1"><g
         id="g3706"
         style="fill:#c32026;fill-opacity:1"><path
           d="m 356.126,405.342 -79.198,0 c -1.663,0 -3.015,-1.41 -3.015,-3.146 l 0,-52.098 c 0,-1.735 1.352,-3.146 3.015,-3.146 l 79.198,0 c 1.663,0 3.018,1.411 3.018,3.146 l 0,52.098 c 0,1.736 -1.355,3.146 -3.018,3.146 z m -78.734,-3.479 78.272,0 0,-51.433 -78.272,0 0,51.433 z"
           id="path3708"
           inkscape:connector-curvature="0"
           style="fill:#c32026;fill-opacity:1" /></g><g
         id="g3710"
         style="fill:#c32026;fill-opacity:1"><rect
           x="312.10699"
           y="405.34201"
           width="8.842"
           height="5.7989998"
           id="rect3712"
           style="fill:#c32026;fill-opacity:1" /></g><g
         id="g3714"
         style="fill:#c32026;fill-opacity:1"><line
           x1="301.35501"
           y1="412.88101"
           x2="331.70099"
           y2="412.88101"
           id="line3716"
           style="fill:#c32026;fill-opacity:1" /><path
           d="m 331.701,414.619 -30.346,0 c -0.961,0 -1.739,-0.779 -1.739,-1.738 0,-0.961 0.778,-1.74 1.739,-1.74 l 30.346,0 c 0.96,0 1.739,0.779 1.739,1.74 0,0.959 -0.779,1.738 -1.739,1.738 z"
           id="path3718"
           inkscape:connector-curvature="0"
           style="fill:#c32026;fill-opacity:1" /></g></g><g
       id="XMLID_3_"
       style="fill:#c32026;fill-opacity:1"><path
         d="m 322.729,396.287 c -0.024,0 -0.051,0 -0.076,-10e-4 -0.82,-0.036 -1.502,-0.64 -1.638,-1.448 l -4.911,-29.122 -4.735,16.952 c -0.206,0.737 -0.87,1.253 -1.636,1.27 -0.752,0.021 -1.452,-0.466 -1.691,-1.193 l -3.811,-11.535 -2.893,7.566 c -0.258,0.674 -0.904,1.118 -1.626,1.118 l -10.307,0 c -0.962,0 -1.739,-0.778 -1.739,-1.739 0,-0.961 0.777,-1.739 1.739,-1.739 l 9.11,0 4.211,-11.011 c 0.263,-0.688 0.89,-1.154 1.665,-1.118 0.736,0.017 1.381,0.495 1.612,1.193 l 3.55,10.751 5.294,-18.953 c 0.22,-0.784 0.938,-1.314 1.769,-1.269 0.813,0.043 1.487,0.645 1.622,1.448 l 4.858,28.813 5.083,-19.428 c 0.198,-0.752 0.871,-1.282 1.647,-1.298 0.768,-0.028 1.472,0.485 1.701,1.229 l 2.956,9.643 9.163,0 c 0.96,0 1.74,0.778 1.74,1.739 0,0.961 -0.78,1.739 -1.74,1.739 l -10.45,0 c -0.764,0 -1.438,-0.499 -1.663,-1.229 l -1.537,-5.017 -5.585,21.341 c -0.2,0.768 -0.893,1.298 -1.682,1.298 z"
         id="path3721"
         inkscape:connector-curvature="0"
         style="fill:#c32026;fill-opacity:1" /></g></g></svg>