<?xml version="1.0" encoding="UTF-8" standalone="no"?>
<!-- Generator: Adobe Illustrator 16.0.3, SVG Export Plug-In . SVG Version: 6.00 Build 0)  -->

<svg
   xmlns:dc="http://purl.org/dc/elements/1.1/"
   xmlns:cc="http://creativecommons.org/ns#"
   xmlns:rdf="http://www.w3.org/1999/02/22-rdf-syntax-ns#"
   xmlns:svg="http://www.w3.org/2000/svg"
   xmlns="http://www.w3.org/2000/svg"
   xmlns:sodipodi="http://sodipodi.sourceforge.net/DTD/sodipodi-0.dtd"
   xmlns:inkscape="http://www.inkscape.org/namespaces/inkscape"
   version="1.1"
   id="Layer_1"
   x="0px"
   y="0px"
   width="23.35453"
   height="42"
   viewBox="0 0 23.354531 42"
   enable-background="new 0 0 612 792"
   xml:space="preserve"
   inkscape:version="0.91 r13725"
   sodipodi:docname="temp 42px.svg"><metadata
     id="metadata21"><rdf:RDF><cc:Work
         rdf:about=""><dc:format>image/svg+xml</dc:format><dc:type
           rdf:resource="http://purl.org/dc/dcmitype/StillImage" /><dc:title></dc:title></cc:Work></rdf:RDF></metadata><defs
     id="defs19" /><sodipodi:namedview
     pagecolor="#ffffff"
     bordercolor="#000000"
     borderopacity="0"
     objecttolerance="10"
     gridtolerance="10"
     guidetolerance="10"
     inkscape:pageopacity="0"
     inkscape:pageshadow="2"
     inkscape:window-width="750"
     inkscape:window-height="373"
     id="namedview17"
     showgrid="false"
     fit-margin-top="0"
     fit-margin-left="0"
     fit-margin-right="0"
     fit-margin-bottom="0"
     inkscape:zoom="5.6190476"
     inkscape:cx="11.677265"
     inkscape:cy="21"
     inkscape:window-x="2240"
     inkscape:window-y="386"
     inkscape:window-maximized="0"
     inkscape:current-layer="Layer_1" /><g
     id="g3"
     transform="matrix(0.52562418,0,0,0.52562418,-149.16373,-178.24021)"
     style="fill:#c32026;fill-opacity:1"><path
       d="m 304.43,344.233 c 4.571,0 8.277,2.795 8.277,6.241 l 0,34.764 c 4.351,2.75 7.238,7.596 7.238,13.121 0,8.568 -6.945,15.515 -15.516,15.515 -8.571,0 -15.516,-6.946 -15.516,-15.515 0,-5.525 2.888,-10.372 7.235,-13.121 l 0,-34.764 c 10e-4,-3.446 3.709,-6.241 8.282,-6.241 m 0,-5.131 c -7.519,0 -13.411,4.996 -13.411,11.373 l 0,32.186 c -4.575,3.896 -7.235,9.578 -7.235,15.7 0,11.384 9.262,20.646 20.646,20.646 11.384,0 20.647,-9.263 20.647,-20.646 0,-6.123 -2.66,-11.806 -7.238,-15.701 l 0,-32.185 c 0,-6.378 -5.889,-11.373 -13.409,-11.373 l 0,0 z"
       id="path5"
       inkscape:connector-curvature="0"
       style="fill:#c32026;fill-opacity:1" /><circle
       cx="304.42899"
       cy="398.39999"
       r="12.004"
       id="circle7"
       style="fill:#c32026;fill-opacity:1" /><rect
       x="300.46399"
       y="361.82401"
       width="7.934"
       height="28.832001"
       id="rect9"
       style="fill:#c32026;fill-opacity:1" /><rect
       x="321.86099"
       y="361.89099"
       width="6.355"
       height="3.3659999"
       id="rect11"
       style="fill:#c32026;fill-opacity:1" /><rect
       x="321.86099"
       y="370.19901"
       width="6.355"
       height="3.3670001"
       id="rect13"
       style="fill:#c32026;fill-opacity:1" /><rect
       x="321.86099"
       y="378.375"
       width="6.355"
       height="3.3659999"
       id="rect15"
       style="fill:#c32026;fill-opacity:1" /></g></svg>