<?xml version="1.0" encoding="UTF-8" standalone="no"?>
<!-- Svg Vector Icons : http://www.onlinewebfonts.com/icon -->

<svg
   xmlns:dc="http://purl.org/dc/elements/1.1/"
   xmlns:cc="http://creativecommons.org/ns#"
   xmlns:rdf="http://www.w3.org/1999/02/22-rdf-syntax-ns#"
   xmlns:svg="http://www.w3.org/2000/svg"
   xmlns="http://www.w3.org/2000/svg"
   xmlns:sodipodi="http://sodipodi.sourceforge.net/DTD/sodipodi-0.dtd"
   xmlns:inkscape="http://www.inkscape.org/namespaces/inkscape"
   version="1.1"
   x="0px"
   y="0px"
   viewBox="0 0 47.825199 42"
   enable-background="new 0 0 1000 1000"
   xml:space="preserve"
   id="svg2"
   inkscape:version="0.91 r13725"
   sodipodi:docname="voltage 42px.svg"
   width="47.825199"
   height="42"><defs
     id="defs44" /><sodipodi:namedview
     pagecolor="#ffffff"
     bordercolor="#000000"
     borderopacity="0"
     objecttolerance="10"
     gridtolerance="10"
     guidetolerance="10"
     inkscape:pageopacity="0"
     inkscape:pageshadow="2"
     inkscape:window-width="750"
     inkscape:window-height="480"
     id="namedview42"
     showgrid="false"
     fit-margin-top="0"
     fit-margin-left="0"
     fit-margin-right="0"
     fit-margin-bottom="0"
     inkscape:zoom="0.236"
     inkscape:cx="23.850105"
     inkscape:cy="21.049982"
     inkscape:window-x="2040"
     inkscape:window-y="368"
     inkscape:window-maximized="0"
     inkscape:current-layer="svg2" /><metadata
     id="metadata4"> Svg Vector Icons : http://www.onlinewebfonts.com/icon <rdf:RDF><cc:Work
     rdf:about=""><dc:format>image/svg+xml</dc:format><dc:type
       rdf:resource="http://purl.org/dc/dcmitype/StillImage" /><dc:title></dc:title></cc:Work></rdf:RDF></metadata><g
     id="g6"
     style="fill:#c32026;fill-opacity:1"
     transform="matrix(0.04879749,0,0,0.04879749,-0.48919484,-3.4011851)"><g
       id="g8"
       style="fill:#c32026;fill-opacity:1"><path
         d="M 981.5,858.5 539.1,92.4 c -8.1,-14 -23,-22.7 -39.2,-22.7 -16.2,0 -31.2,8.6 -39.2,22.7 l -444.6,770 c -8.1,14 -8.1,31.3 0,45.3 8.1,14 23.1,22.7 39.3,22.7 l 889.1,0 c 0.1,0 0.2,0 0.3,0 25,0 45.3,-20.3 45.3,-45.3 -0.1,-10 -3.3,-19.1 -8.6,-26.6 z m -847.7,-18.8 366.1,-634 366.1,634 -732.2,0 0,0 z m 468.8,-398 -124.2,138 110.4,0 -220.8,220.8 82.8,-179.4 -96.6,0 110.4,-179.4 138,0 z"
         id="path10"
         style="fill:#c32026;fill-opacity:1"
         inkscape:connector-curvature="0" /></g><g
       id="g12"
       style="fill:#c32026;fill-opacity:1" /><g
       id="g14"
       style="fill:#c32026;fill-opacity:1" /><g
       id="g16"
       style="fill:#c32026;fill-opacity:1" /><g
       id="g18"
       style="fill:#c32026;fill-opacity:1" /><g
       id="g20"
       style="fill:#c32026;fill-opacity:1" /><g
       id="g22"
       style="fill:#c32026;fill-opacity:1" /><g
       id="g24"
       style="fill:#c32026;fill-opacity:1" /><g
       id="g26"
       style="fill:#c32026;fill-opacity:1" /><g
       id="g28"
       style="fill:#c32026;fill-opacity:1" /><g
       id="g30"
       style="fill:#c32026;fill-opacity:1" /><g
       id="g32"
       style="fill:#c32026;fill-opacity:1" /><g
       id="g34"
       style="fill:#c32026;fill-opacity:1" /><g
       id="g36"
       style="fill:#c32026;fill-opacity:1" /><g
       id="g38"
       style="fill:#c32026;fill-opacity:1" /><g
       id="g40"
       style="fill:#c32026;fill-opacity:1" /></g></svg>