<?xml version="1.0" encoding="UTF-8" standalone="no"?>
<!-- Created with Inkscape (http://www.inkscape.org/) -->

<svg
   xmlns:dc="http://purl.org/dc/elements/1.1/"
   xmlns:cc="http://creativecommons.org/ns#"
   xmlns:rdf="http://www.w3.org/1999/02/22-rdf-syntax-ns#"
   xmlns:svg="http://www.w3.org/2000/svg"
   xmlns="http://www.w3.org/2000/svg"
   xmlns:sodipodi="http://sodipodi.sourceforge.net/DTD/sodipodi-0.dtd"
   xmlns:inkscape="http://www.inkscape.org/namespaces/inkscape"
   width="26.04911mm"
   height="6.0113335mm"
   viewBox="0 0 92.299998 21.3"
   id="svg4298"
   version="1.1"
   inkscape:version="0.91 r13725"
   sodipodi:docname="Exotic PC.svg">
  <defs
     id="defs4300" />
  <sodipodi:namedview
     id="base"
     pagecolor="#ffffff"
     bordercolor="#666666"
     borderopacity="1.0"
     inkscape:pageopacity="0.0"
     inkscape:pageshadow="2"
     inkscape:zoom="0.35"
     inkscape:cx="-405.99285"
     inkscape:cy="179.22143"
     inkscape:document-units="px"
     inkscape:current-layer="layer1"
     showgrid="false"
     fit-margin-top="0"
     fit-margin-left="0"
     fit-margin-right="0"
     fit-margin-bottom="0"
     inkscape:window-width="1280"
     inkscape:window-height="1000"
     inkscape:window-x="0"
     inkscape:window-y="172"
     inkscape:window-maximized="1" />
  <metadata
     id="metadata4303">
    <rdf:RDF>
      <cc:Work
         rdf:about="">
        <dc:format>image/svg+xml</dc:format>
        <dc:type
           rdf:resource="http://purl.org/dc/dcmitype/StillImage" />
        <dc:title></dc:title>
      </cc:Work>
    </rdf:RDF>
  </metadata>
  <g
     inkscape:label="Layer 1"
     inkscape:groupmode="layer"
     id="layer1"
     transform="translate(-488.13571,-690.28363)">
    <g
       id="g723"
       transform="translate(474.93571,674.38363)">
      <path
         class="st17"
         d="m 42.2,22.5 0,0 2.5,0 -4.5,3.5 -2.1,0 -4.4,-3.5 2.5,0 2.7,2.1 0.7,0 2.6,-2.1 0,0 z m 0,7.6 2.5,0 -4.4,-3.5 -2.1,0 -4.4,3.5 2.4,0 2.7,-2.1 0.7,0 2.6,2.1 0,0 z m 29,-1.4 0,-2.1 -1.4,0 0,1.8 c 0,0.7 0.1,1.2 0.3,1.4 0.2,0.2 0.7,0.3 1.4,0.3 l 9.3,0 0,-1.4 -9.6,0 0,0 z m 0,-4.8 0,0 0,2.1 -1.4,0 0,-1.8 c 0,-0.7 0.1,-1.2 0.3,-1.4 0.2,-0.2 0.7,-0.3 1.4,-0.3 l 9.3,0 0,1.4 -9.6,0 0,0 z m -2.8,2.7 0,3.5 -1.4,0 0,-3.5 1.4,0 0,0 z m 0,-4.1 0,0 0,3.5 -1.4,0 0,-3.5 1.4,0 0,0 z m -8.6,1.4 -2.1,0 0,-1.4 3.5,0 0,7.7 -1.4,0 0,-6.3 0,0 z m 3.5,0 0,0 0,6.2 -1.4,0 0,-7.7 3.5,0 0,1.4 -2.1,0 0,0.1 z m -8.2,4.8 -8.1,0 0,-2.1 -1.4,0 0,1.8 c 0,0.7 0.1,1.2 0.3,1.4 0.2,0.2 0.7,0.3 1.4,0.3 l 7.6,0 c 0.7,0 1.2,-0.1 1.4,-0.3 0.2,-0.2 0.3,-0.7 0.3,-1.4 l 0,-1.8 -1.4,0 0,2.1 -0.1,0 z m 0,-4.8 0,0 -8.1,0 0,2.1 -1.4,0 0,-1.8 c 0,-0.7 0.1,-1.2 0.3,-1.4 0.2,-0.2 0.7,-0.3 1.4,-0.3 l 7.6,0 c 0.7,0 1.2,0.1 1.4,0.3 0.2,0.2 0.3,0.7 0.3,1.4 l 0,1.8 -1.4,0 0,-2.1 z"
         id="path725"
         inkscape:connector-curvature="0"
         style="clip-rule:evenodd;fill:#ffffff;fill-rule:evenodd" />
      <path
         class="st3"
         d="m 91.7,24.6 0,0 -8.1,0 0,-0.6 8.1,0 0,0.6 0,0 z m 1.5,1.4 0,0 0,-1.8 c 0,-0.7 -0.1,-1.2 -0.3,-1.4 -0.2,-0.2 -0.7,-0.3 -1.4,-0.3 l -9.3,0 0,3.5 11,0 0,0 z m -9.6,4.1 0,-2.1 7.9,0 c 0.8,0 1.2,-0.1 1.4,-0.2 0.2,-0.2 0.3,-0.6 0.3,-1.3 l -11,0 0,3.5 1.4,0 0,0.1 z m 12.3,-6.2 0,0 0,2.1 -1.4,0 0,-1.8 c 0,-0.7 0.1,-1.2 0.3,-1.4 0.2,-0.2 0.7,-0.3 1.4,-0.3 l 9.3,0 0,1.4 -9.6,0 0,0 z m 0,4.8 0,-2.1 -1.4,0 0,1.8 c 0,0.7 0.1,1.2 0.3,1.4 0.2,0.2 0.7,0.3 1.4,0.3 l 9.3,0 0,-1.4 -9.6,0 z"
         id="path727"
         inkscape:connector-curvature="0"
         style="clip-rule:evenodd;fill:#c32026;fill-rule:evenodd" />
      <path
         class="st3"
         d="m 23.8,20.2 0,0 -3.2,2.2 3.2,2.7 3.2,-2.7 -3.2,-2.2 0,0 z m 3.4,-2.3 3.1,1.8 -2.5,2.1 -3.2,-2.1 2.6,-1.8 0,0 0,0 z m -6.8,0 2.6,1.8 -3.2,2.1 -2.5,-2.1 3.1,-1.8 0,0 0,0 z m 3.4,-2 0,0 -2.6,1.5 2.6,1.7 2.6,-1.7 -2.6,-1.5 0,0 z m 0,17.1 0,0 3.2,-2.2 -3.2,-2.7 -3.2,2.7 3.2,2.2 0,0 z m 3.4,2.3 -2.6,-1.8 3.2,-2.1 2.5,2.1 -3.1,1.8 0,0 0,0 z m -6.8,0 -3.1,-1.8 2.5,-2.1 3.2,2.1 -2.6,1.8 0,0 0,0 z m 3.4,1.9 0,0 2.6,-1.5 -2.6,-1.7 -2.6,1.7 2.6,1.5 0,0 z m -6.4,-10.6 2.2,-3.2 2.7,3.2 -2.7,3.2 -2.2,-3.2 0,0 0,0 z m -2.3,-3.4 0,0 1.8,2.6 2.1,-3.2 -2.1,-2.5 -1.8,3.1 0,0 z m 0,6.7 0,0 1.8,3.1 2.1,-2.5 -2.1,-3.2 -1.8,2.6 0,0 z m -1.9,-3.3 1.5,-2.6 1.7,2.6 -1.7,2.6 -1.5,-2.6 0,0 0,0 z m 17,0 -2.2,3.2 -2.7,-3.2 2.7,-3.2 2.2,3.2 0,0 0,0 z m 2.3,-3.4 0,0 -1.8,-3.1 -2.1,2.5 2.1,3.2 1.8,-2.6 0,0 z m 0,6.7 0,0 -1.8,-2.6 -2.1,3.2 2.1,2.5 1.8,-3.1 0,0 z M 34.4,26.6 33,29.2 31.3,26.6 33,24 l 1.4,2.6 z"
         id="path729"
         inkscape:connector-curvature="0"
         style="clip-rule:evenodd;fill:#c32026;fill-rule:evenodd" />
    </g>
  </g>
</svg>
