<?xml version="1.0" encoding="UTF-8" standalone="no"?>
<!-- Generator: Adobe Illustrator 20.1.0, SVG Export Plug-In . SVG Version: 6.00 Build 0)  -->

<svg
   xmlns:dc="http://purl.org/dc/elements/1.1/"
   xmlns:cc="http://creativecommons.org/ns#"
   xmlns:rdf="http://www.w3.org/1999/02/22-rdf-syntax-ns#"
   xmlns:svg="http://www.w3.org/2000/svg"
   xmlns="http://www.w3.org/2000/svg"
   xmlns:xlink="http://www.w3.org/1999/xlink"
   xmlns:sodipodi="http://sodipodi.sourceforge.net/DTD/sodipodi-0.dtd"
   xmlns:inkscape="http://www.inkscape.org/namespaces/inkscape"
   version="1.1"
   id="Layer_1"
   x="0px"
   y="0px"
   viewBox="0 0 26.399997 18.7"
   xml:space="preserve"
   inkscape:version="0.91 r13725"
   sodipodi:docname="YouTube icon.svg"
   width="26.4"
   height="18.700001"><metadata
     id="metadata1015"><rdf:RDF><cc:Work
         rdf:about=""><dc:format>image/svg+xml</dc:format><dc:type
           rdf:resource="http://purl.org/dc/dcmitype/StillImage" /><dc:title /></cc:Work></rdf:RDF></metadata><defs
     id="defs1013" /><sodipodi:namedview
     pagecolor="#ffffff"
     bordercolor="#666666"
     borderopacity="1"
     objecttolerance="10"
     gridtolerance="10"
     guidetolerance="10"
     inkscape:pageopacity="0"
     inkscape:pageshadow="2"
     inkscape:window-width="1873"
     inkscape:window-height="1176"
     id="namedview1011"
     showgrid="false"
     fit-margin-top="0"
     fit-margin-left="0"
     fit-margin-right="0"
     fit-margin-bottom="0"
     inkscape:zoom="0.95137808"
     inkscape:cx="-204.79999"
     inkscape:cy="546.05"
     inkscape:window-x="1327"
     inkscape:window-y="24"
     inkscape:window-maximized="1"
     inkscape:current-layer="g713" /><style
     type="text/css"
     id="style3">
	.st0{fill-rule:evenodd;clip-rule:evenodd;fill:#333333;}
	.st1{fill-rule:evenodd;clip-rule:evenodd;fill:#292929;}
	.st2{fill-rule:evenodd;clip-rule:evenodd;}
	.st3{fill-rule:evenodd;clip-rule:evenodd;fill:#C32026;}
	.st4{fill-rule:evenodd;clip-rule:evenodd;fill:#FF0000;}
	.st5{fill:#FFFFFF;}
	.st6{font-family:'SupriaSans-CondBold';}
	.st7{font-size:8.674px;}
	.st8{letter-spacing:2;}
	.st9{fill:#C32026;}
	.st10{font-size:16.6317px;}
	.st11{font-size:11.6623px;}
	.st12{font-size:9px;}
	.st13{fill-rule:evenodd;clip-rule:evenodd;fill:#666666;}
	.st14{font-size:12.2579px;}
	.st15{font-size:4.928px;}
	.st16{fill-rule:evenodd;clip-rule:evenodd;fill:none;stroke:#FFFFFF;stroke-width:0.5;stroke-miterlimit:2.6131;}
	.st17{fill-rule:evenodd;clip-rule:evenodd;fill:#FFFFFF;}
	.st18{fill-rule:evenodd;clip-rule:evenodd;fill:none;stroke:#FFFFFF;stroke-width:0.9998;stroke-miterlimit:2.6131;}
	.st19{font-size:23.3966px;}
	.st20{font-size:18.7364px;}
	.st21{font-size:9.8164px;}
	.st22{font-size:6.9613px;}
	.st23{fill-rule:evenodd;clip-rule:evenodd;fill:#4D4D4D;}
	.st24{font-size:13.3826px;}
	.st25{font-size:7.0112px;}
</style><g
     id="g675"
     transform="translate(-882.80744,-1073.8)"><defs
       id="defs677"><circle
         id="SVGID_31_"
         cx="270.20001"
         cy="238.5"
         r="58.299999" /></defs><clipPath
       id="SVGID_32_"><use
         xlink:href="#SVGID_31_"
         style="overflow:visible"
         id="use681"
         x="0"
         y="0"
         width="100%"
         height="100%" /></clipPath><g
       id="g683"
       clip-path="url(#SVGID_32_)"
       transform="translate(-70,0)" /></g><g
     id="g713"
     transform="translate(-555.8,-1073.8)"><path
       class="st17"
       d="m 524.3,1057.9 c -0.5,0.2 -1,0.4 -1.6,0.5 0.6,-0.6 1,-1.3 1.3,-2 0.1,-0.2 -0.2,-0.4 -0.4,-0.3 -0.7,0.4 -1.5,0.8 -2.4,1 0,0 -0.1,0 -0.1,0 -0.2,0 -0.3,-0.1 -0.4,-0.2 -0.9,-0.8 -2,-1.2 -3.2,-1.2 -0.5,0 -1,0.1 -1.5,0.2 -1.6,0.5 -2.8,1.8 -3.2,3.4 -0.1,0.6 -0.2,1.2 -0.1,1.8 0,0.1 0,0.1 0,0.1 0,0 -0.1,0.1 -0.1,0.1 0,0 0,0 0,0 -3.4,-0.3 -6.5,-2 -8.7,-4.7 -0.1,-0.1 -0.3,-0.1 -0.4,0 -0.4,0.7 -0.7,1.6 -0.7,2.4 0,1.3 0.5,2.6 1.4,3.5 -0.4,-0.1 -0.8,-0.2 -1.1,-0.4 -0.2,-0.1 -0.4,0 -0.4,0.2 0,2 1.1,3.7 2.8,4.5 0,0 -0.1,0 -0.1,0 -0.3,0 -0.5,0 -0.8,-0.1 -0.2,0 -0.3,0.1 -0.3,0.3 0.6,1.7 2,3 3.8,3.3 -1.5,1 -3.2,1.5 -5,1.5 l -0.6,0 c -0.2,0 -0.3,0.1 -0.4,0.3 0,0.2 0,0.3 0.2,0.4 2,1.2 4.3,1.8 6.7,1.8 2.1,0 4,-0.4 5.7,-1.2 1.6,-0.7 3,-1.8 4.2,-3.1 1.1,-1.2 2,-2.7 2.6,-4.3 0.6,-1.5 0.9,-3.1 0.9,-4.7 l 0,-0.1 c 0,-0.2 0.1,-0.5 0.3,-0.6 0.7,-0.6 1.4,-1.3 1.9,-2.1 0.1,-0.1 -0.1,-0.4 -0.3,-0.3 z"
       id="path715"
       inkscape:connector-curvature="0"
       style="clip-rule:evenodd;fill:#ffffff;fill-rule:evenodd" /><path
       class="st17"
       d="m 576.7,1073.8 -15.4,0 c -3,0 -5.5,2.5 -5.5,5.5 l 0,7.7 c 0,3 2.5,5.5 5.5,5.5 l 15.4,0 c 3,0 5.5,-2.5 5.5,-5.5 l 0,-7.7 c 0,-3.1 -2.5,-5.5 -5.5,-5.5 l 0,0 z m -3.7,9.7 -7.2,3.4 c -0.2,0.1 -0.4,0 -0.4,-0.3 l 0,-7.1 c 0,-0.2 0.2,-0.4 0.4,-0.3 l 7.2,3.7 c 0.2,0.2 0.2,0.5 0,0.6 z"
       id="path717"
       inkscape:connector-curvature="0"
       style="clip-rule:evenodd;fill:#ffffff;fill-rule:evenodd" /></g><path
     class="st17"
     d="m -432.6725,-33.63937 -13.7,0 c -1.4,0 -2.5,1.1 -2.5,2.5 l 0,13.7 c 0,1.4 1.1,2.5 2.5,2.5 l 6.7,0 0,-6.7 -1.7,0 c -0.2,0 -0.4,-0.2 -0.4,-0.4 l 0,-2.2 c 0,-0.2 0.2,-0.4 0.4,-0.4 l 1.7,0 0,-2.1 c 0,-2.4 1.5,-3.7 3.6,-3.7 l 1.8,0 c 0.2,0 0.4,0.2 0.4,0.4 l 0,1.8 c 0,0.2 -0.2,0.4 -0.4,0.4 l -1.1,0 c -1.2,0 -1.4,0.6 -1.4,1.4 l 0,1.8 2.6,0 c 0.2,0 0.4,0.2 0.4,0.5 l -0.3,2.2 c 0,0.2 -0.2,0.4 -0.4,0.4 l -2.3,0 0,6.7 4,0 c 1.4,0 2.5,-1.1 2.5,-2.5 l 0,-13.7 c 0.1,-1.5 -1,-2.6 -2.4,-2.6 z"
     id="path719"
     inkscape:connector-curvature="0"
     style="clip-rule:evenodd;fill:#ffffff;fill-rule:evenodd" /><path
     class="st17"
     d="m -377.7,-10.7 c 0,2.7 2.2,4.8 4.8,4.8 2.7,0 4.8,-2.2 4.8,-4.8 0,-2.7 -2.2,-4.8 -4.8,-4.8 -2.6,0 -4.8,2.2 -4.8,4.8 l 0,0 z m 8.6,-4.9 c 0,-0.6 0.5,-1.1 1.1,-1.1 0.6,0 1.1,0.5 1.1,1.1 0,0.6 -0.5,1.1 -1.1,1.1 -0.5,0 -1.1,-0.5 -1.1,-1.1 l 0,0 z m -13.1,9.5 0,-9.3 c 0,-2.6 2.1,-4.7 4.7,-4.7 l 9.3,0 c 2.6,0 4.7,2.1 4.7,4.7 l 0,9.3 c 0,2.6 -2.1,4.7 -4.7,4.7 l -9.3,0 c -2.6,0.1 -4.7,-2.1 -4.7,-4.7 l 0,0 z m 13.9,2.7 -9.3,0 c -1.5,0 -2.7,-1.2 -2.7,-2.7 l 0,-9.3 c 0,-1.5 1.2,-2.7 2.7,-2.7 l 9.3,0 c 1.5,0 2.7,1.2 2.7,2.7 l 0,9.3 c 0,1.5 -1.2,2.7 -2.7,2.7 l 0,0 z m -1.8,-7.3 c 0,1.5 -1.2,2.8 -2.8,2.8 -1.5,0 -2.8,-1.2 -2.8,-2.8 0,-1.5 1.2,-2.8 2.8,-2.8 1.5,0 2.8,1.3 2.8,2.8 z"
     id="path721"
     inkscape:connector-curvature="0"
     style="clip-rule:evenodd;fill:#ffffff;fill-rule:evenodd" /></svg>