<?xml version="1.0" encoding="utf-8"?>
<!-- Generator: Adobe Illustrator 16.0.0, SVG Export Plug-In . SVG Version: 6.00 Build 0)  -->
<!DOCTYPE svg PUBLIC "-//W3C//DTD SVG 1.1//EN" "http://www.w3.org/Graphics/SVG/1.1/DTD/svg11.dtd">
<svg version="1.1"
	 id="svg2" xmlns:cc="http://creativecommons.org/ns#" xmlns:inkscape="http://www.inkscape.org/namespaces/inkscape" xmlns:sodipodi="http://sodipodi.sourceforge.net/DTD/sodipodi-0.dtd" xmlns:rdf="http://www.w3.org/1999/02/22-rdf-syntax-ns#" xmlns:svg="http://www.w3.org/2000/svg" xmlns:dc="http://purl.org/dc/elements/1.1/" inkscape:version="0.91 r13725" sodipodi:docname="Zone keyboard_c_panel.svg"
	 xmlns="http://www.w3.org/2000/svg" xmlns:xlink="http://www.w3.org/1999/xlink" x="0px" y="0px" width="576.875px"
	 height="370.625px" viewBox="4 5 576.875 370.625" enable-background="new 4 5 576.875 370.625" xml:space="preserve">
<sodipodi:namedview  pagecolor="#ffffff" objecttolerance="10" borderopacity="1" showgrid="false" bordercolor="#666666" inkscape:cx="542.33752" gridtolerance="10" id="namedview4" inkscape:cy="364.95001" inkscape:zoom="2" guidetolerance="10" inkscape:window-maximized="1" inkscape:window-height="1176" inkscape:pageopacity="0" inkscape:current-layer="g12" inkscape:window-width="1873" inkscape:window-x="47" inkscape:window-y="24" inkscape:pageshadow="2">
	</sodipodi:namedview>
<g id="g10" transform="matrix(1.25,0,0,-1.25,0,729.9)" inkscape:label="ink_ext_XXXXXX" inkscape:groupmode="layer">
	<g id="g12" transform="scale(0.1,0.1)">
		<path id="path14" inkscape:connector-curvature="0" fill="#100F0D" d="M4632.003,5774.2l-235,25L222,5789.2l-190-15v-2720
			c0,0,1-90,23-108c28-23,97-22,97-22l1400-65c0,0,705-25,765-25c60.004,0,525.004,15,525.004,15l1635,65c0,0,140,15,155,25
			s15,55,15,55L4632.003,5774.2"/>
		<path id="path16" inkscape:connector-curvature="0" fill="#FFFFFF" d="M459,4892.2c0,11,9,20,20,20h120c11,0,20-9,20-20v-113
			c0-11-9-20-20-20H479c-11,0-20,9-20,20V4892.2"/>
		<path id="path18" inkscape:connector-curvature="0" fill="#FFFFFF" d="M445,4956.2c-11,0-20.004,9-20.004,20v113
			c0,11,9.004,20,20.004,20h120c11,0,20-9,20-20v-113c0-11-9-20-20-20H445"/>
		<path id="path20" inkscape:connector-curvature="0" fill="#FFFFFF" d="M512,4689.2c0,11,9,20,20,20h120c11,0,20-9,20-20v-113
			c0-11-9-20-20-20H532c-11,0-20,9-20,20V4689.2"/>
		<path id="path22" inkscape:connector-curvature="0" fill="#FFFFFF" d="M787,4976.2c0-11-9-20-20-20H647c-11,0-20,9-20,20v113
			c0,11,9,20,20,20h120c11,0,20-9,20-20V4976.2"/>
		<path id="path24" inkscape:connector-curvature="0" fill="#FFFFFF" d="M800,4912.2c11,0,20-9,20-20v-113c0-11-9-20-20-20H680
			c-11,0-20,9-20,20v113c0,11,9,20,20,20H800"/>
		<path id="path26" inkscape:connector-curvature="0" fill="#FFFFFF" d="M619,4486.2c0,11,9,20,20,20h120c11,0,20-9,20-20v-113
			c0-11-9-20-20-20H639c-11,0-20,9-20,20V4486.2"/>
		<path id="path28" inkscape:connector-curvature="0" fill="#FFFFFF" d="M733,4556.2c-11,0-20,9-20,20v113c0,11,9,20,20,20h120
			c11,0,20-9,20-20v-113c0-11-9-20-20-20H733"/>
		<path id="path30" inkscape:connector-curvature="0" fill="#FFFFFF" d="M1477,4689.2v-113c0-11-9-20-20-20h-120c-11,0-20,9-20,20
			v113c0,11,9,20,20,20h120C1468,4709.2,1477,4700.2,1477,4689.2"/>
		<path id="path32" inkscape:connector-curvature="0" fill="#FFFFFF" d="M1381,4486.2v-113c0-11-9-20-20-20h-120c-11,0-20,9-20,20
			v113c0,11,9,20,20,20h120C1372,4506.2,1381,4497.2,1381,4486.2"/>
		<path id="path34" inkscape:connector-curvature="0" fill="#FFFFFF" d="M1424,4779.2c0-11-9-20-20-20h-120c-11,0-20,9-20,20v113
			c0,11,9,20,20,20h120c11,0,20-9,20-20V4779.2"/>
		<path id="path36" inkscape:connector-curvature="0" fill="#FFFFFF" d="M1390,4976.2c0-11-9-20-20-20h-120c-11,0-20,9-20,20v113
			c0,11,9,20,20,20h120c11,0,20-9,20-20V4976.2"/>
		<path id="path38" inkscape:connector-curvature="0" fill="#FFFFFF" d="M1256,4709.2c11,0,20-9,20-20v-113c0-11-9-20-20-20h-120
			c-11,0-20,9-20,20v113c0,11,9,20,20,20H1256"/>
		<path id="path40" inkscape:connector-curvature="0" fill="#FFFFFF" d="M1180,4486.2v-113c0-11-9-20-20-20h-120c-11,0-20,9-20,20
			v113c0,11,9,20,20,20h120C1171,4506.2,1180,4497.2,1180,4486.2"/>
		<path id="path42" inkscape:connector-curvature="0" fill="#FFFFFF" d="M1222,4779.2c0-11-9-20-20-20h-120c-11,0-20,9-20,20v113
			c0,11,9,20,20,20h120c11,0,20-9,20-20V4779.2"/>
		<path id="path44" inkscape:connector-curvature="0" fill="#FFFFFF" d="M1075,4689.2v-113c0-11-9-20-20-20H935c-11,0-20,9-20,20
			v113c0,11,9,20,20,20h120C1066,4709.2,1075,4700.2,1075,4689.2"/>
		<path id="path46" inkscape:connector-curvature="0" fill="#FFFFFF" d="M1021,4779.2c0-11-9-20-20-20H881c-11,0-20,9-20,20v113
			c0,11,9,20,20,20h120c11,0,20-9,20-20V4779.2"/>
		<path id="path48" inkscape:connector-curvature="0" fill="#FFFFFF" d="M988,4976.2c0-11-9-20-20-20H848c-11,0-20,9-20,20v113
			c0,11,9,20,20,20h120c11,0,20-9,20-20V4976.2"/>
		<path id="path50" inkscape:connector-curvature="0" fill="#FFFFFF" d="M819,4486.2c0,11,9,20,20,20h120c11,0,20-9,20-20v-113
			c0-11-9-20-20-20H839c-11,0-20,9-20,20V4486.2"/>
		<path id="path52" inkscape:connector-curvature="0" fill="#FFFFFF" d="M1292,5227.2c0,11,9,20,20,20h107c11,0,20-9,20-20v-57
			c0-11-9-20-20-20h-107c-11,0-20,9-20,20V5227.2"/>
		<path id="path54" inkscape:connector-curvature="0" fill="#FFFFFF" d="M1105,5227.2c0,11,9,20,20,20h107c11,0,20-9,20-20v-57
			c0-11-9-20-20-20h-107c-11,0-20,9-20,20V5227.2"/>
		<path id="path56" inkscape:connector-curvature="0" fill="#FFFFFF" d="M1169,5109.2c11,0,20-9,20-20v-113c0-11-9-20-20-20h-120
			c-11,0-20,9-20,20v113c0,11,9,20,20,20H1169"/>
		<path id="path58" inkscape:connector-curvature="0" fill="#FFFFFF" d="M899,5227.2c0,11,9,20,20,20h107c11,0,20-9,20-20v-57
			c0-11-9-20-20-20H919c-11,0-20,9-20,20V5227.2"/>
		<path id="path60" inkscape:connector-curvature="0" fill="#FFFFFF" d="M712,5227.2c0,11,9,20,20,20h107c11,0,20-9,20-20v-57
			c0-11-9-20-20-20H732c-11,0-20,9-20,20V5227.2"/>
		<path id="path62" inkscape:connector-curvature="0" fill="#FFFFFF" d="M529,5227.2c0,11,9,20,20,20h107c11,0,20-9,20-20v-57
			c0-11-9-20-20-20H549c-11,0-20,9-20,20V5227.2"/>
		<path id="path64" inkscape:connector-curvature="0" fill="#FFFFFF" d="M344.996,5227.2c0,11,9,20,20,20H472c11,0,20-9,20-20v-57
			c0-11-9-20-20-20H364.996c-11,0-20,9-20,20V5227.2"/>
		<path id="path66" inkscape:connector-curvature="0" fill="#FFFFFF" d="M131.996,5227.2c0,11,9,20,20,20h107c11,0,20-9,20-20v-57
			c0-11-9-20-20-20h-107c-11,0-20,9-20,20V5227.2"/>
		<path id="path68" inkscape:connector-curvature="0" fill="#FFFFFF" d="M131.996,5089.2c0,11,9,20,20,20h210c11,0,20-9,20-20v-113
			c0-11-9-20-20-20h-210c-11,0-20,9-20,20V5089.2"/>
		<path id="path70" inkscape:connector-curvature="0" fill="#FFFFFF" d="M131.996,4892.2c0,11,9,20,20,20h240c11,0,20-9,20-20v-113
			c0-11-9-20-20-20h-240c-11,0-20,9-20,20V4892.2"/>
		<path id="path72" inkscape:connector-curvature="0" fill="#FFFFFF" d="M131.996,4689.2c0,11,9,20,20,20H445c11,0,20-9,20-20v-113
			c0-11-9-20-20-20H151.996c-11,0-20,9-20,20V4689.2"/>
		<path id="path74" inkscape:connector-curvature="0" fill="#FFFFFF" d="M131.996,4486.2c0,11,9,20,20,20H549c11,0,20-9,20-20v-113
			c0-11-9-20-20-20H151.996c-11,0-20,9-20,20V4486.2"/>
		<path id="path76" inkscape:connector-curvature="0" fill="#FFFFFF" d="M465,4172.2c0-11-9-20-20-20H151.996c-11,0-20,9-20,20v113
			c0,11,9,20,20,20H445c11,0,20-9,20-20V4172.2"/>
		<path id="path78" inkscape:connector-curvature="0" fill="#FFFFFF" d="M655,4172.2c0-11-9-20-20-20H515c-11,0-20,9-20,20v113
			c0,11,9,20,20,20h120c11,0,20-9,20-20V4172.2"/>
		<path id="path80" inkscape:connector-curvature="0" fill="#FFFFFF" d="M705,4172.2v113c0,11,9,20,20,20h157c11,0,20-9,20-20v-113
			c0-11-9-20-20-20H725C714,4152.2,705,4161.2,705,4172.2"/>
		<path id="path82" inkscape:connector-curvature="0" fill="#FFFFFF" d="M1518.664,4306.2H969c-11,0-20-9-20-20v-113
			c0-11,9-20,20-20h549.664V4306.2"/>
		<path id="path84" inkscape:connector-curvature="0" fill="#FFFFFF" d="M3335.004,5227.2c0,11,9,20,20,20h107c11,0,20-9,20-20v-57
			c0-11-9-20-20-20h-107c-11,0-20,9-20,20V5227.2"/>
		<path id="path86" inkscape:connector-curvature="0" fill="#FFFFFF" d="M2949.004,4486.2c0,11,9,20,20,20h293c11,0,20-9,20-20v-113
			c0-11-9-20-20-20h-293c-11,0-20,9-20,20V4486.2"/>
		<path id="path88" inkscape:connector-curvature="0" fill="#FFFFFF" d="M2865.004,4556.2c-11,0-20,9-20,20v113c0,11,9,20,20,20h120
			c11,0,20-9,20-20v-113c0-11-9-20-20-20H2865.004"/>
		<path id="path90" inkscape:connector-curvature="0" fill="#FFFFFF" d="M3072.004,4556.2c-11,0-20,9-20,20v113c0,11,9,20,20,20h383
			c11,0,20-9,20-20v-113c0-11-9-20-20-20H3072.004"/>
		<path id="path92" inkscape:connector-curvature="0" fill="#FFFFFF" d="M3152.004,4976.2v113c0,11,9,20,20,20h280c11,0,20-9,20-20
			v-113c0-11-9-20-20-20h-280C3161.004,4956.2,3152.004,4965.2,3152.004,4976.2"/>
		<path id="path94" inkscape:connector-curvature="0" fill="#FFFFFF" d="M3455.004,4759.2h-243c-11,0-20,9-20,20v113
			c0,11,9,20,20,20h243c11,0,20-9,20-20v-113C3475.004,4768.2,3466.004,4759.2,3455.004,4759.2"/>
		<path id="path96" inkscape:connector-curvature="0" fill="#FFFFFF" d="M3149.004,5227.2c0,11,9,20,20,20h107c11,0,20-9,20-20v-57
			c0-11-9-20-20-20h-107c-11,0-20,9-20,20V5227.2"/>
		<path id="path98" inkscape:connector-curvature="0" fill="#FFFFFF" d="M3152.004,4892.2v-113c0-11-9-20-20-20h-120
			c-11,0-20,9-20,20v113c0,11,9,20,20,20h120C3143.004,4912.2,3152.004,4903.2,3152.004,4892.2"/>
		<path id="path100" inkscape:connector-curvature="0" fill="#FFFFFF" d="M2965.004,5227.2c0,11,9,20,20,20h107c11,0,20-9,20-20v-57
			c0-11-9-20-20-20h-107c-11,0-20,9-20,20V5227.2"/>
		<path id="path102" inkscape:connector-curvature="0" fill="#FFFFFF" d="M2959.004,5089.2c0,11,9,20,20,20h120c11,0,20-9,20-20
			v-113c0-11-9-20-20-20h-120c-11,0-20,9-20,20V5089.2"/>
		<path id="path104" inkscape:connector-curvature="0" fill="#FFFFFF" d="M2951.004,4892.2v-113c0-11-9-20-20-20h-120
			c-11,0-20,9-20,20v113c0,11,9,20,20,20h120C2942.004,4912.2,2951.004,4903.2,2951.004,4892.2"/>
		<path id="path106" inkscape:connector-curvature="0" fill="#FFFFFF" d="M2804.004,4689.2v-113c0-11-9-20-20-20h-120
			c-11,0-20,9-20,20v113c0,11,9,20,20,20h120C2795.004,4709.2,2804.004,4700.2,2804.004,4689.2"/>
		<path id="path108" inkscape:connector-curvature="0" fill="#FFFFFF" d="M2918.004,5089.2v-113c0-11-9-20-20-20h-120
			c-11,0-20,9-20,20v113c0,11,9,20,20,20h120C2909.004,5109.2,2918.004,5100.2,2918.004,5089.2"/>
		<path id="path110" inkscape:connector-curvature="0" fill="#FFFFFF" d="M2749.004,5227.2c0,11,9,20,20,20h107c11,0,20-9,20-20v-57
			c0-11-9-20-20-20h-107c-11,0-20,9-20,20V5227.2"/>
		<path id="path112" inkscape:connector-curvature="0" fill="#FFFFFF" d="M2750.004,4892.2v-113c0-11-9-20-20-20h-120
			c-11,0-20,9-20,20v113c0,11,9,20,20,20h120C2741.004,4912.2,2750.004,4903.2,2750.004,4892.2"/>
		<path id="path114" inkscape:connector-curvature="0" fill="#FFFFFF" d="M2603.004,4689.2v-113c0-11-9-20-20-20h-120
			c-11,0-20,9-20,20v113c0,11,9,20,20,20h120C2594.004,4709.2,2603.004,4700.2,2603.004,4689.2"/>
		<path id="path116" inkscape:connector-curvature="0" fill="#FFFFFF" d="M2565.004,5227.2c0,11,9,20,20,20h107c11,0,20-9,20-20v-57
			c0-11-9-20-20-20h-107c-11,0-20,9-20,20V5227.2"/>
		<path id="path118" inkscape:connector-curvature="0" fill="#FFFFFF" d="M2556.004,5089.2c0,11,9,20,20,20h120c11,0,20-9,20-20
			v-113c0-11-9-20-20-20h-120c-11,0-20,9-20,20V5089.2"/>
		<path id="path120" inkscape:connector-curvature="0" fill="#FFFFFF" d="M2548.004,4892.2v-113c0-11-9-20-20-20h-120
			c-11,0-20,9-20,20v113c0,11,9,20,20,20h120C2539.004,4912.2,2548.004,4903.2,2548.004,4892.2"/>
		<path id="path122" inkscape:connector-curvature="0" fill="#FFFFFF" d="M2082,4506.2c11,0,20-9,20-20v-113c0-11-9-20-20-20h-120
			c-11,0-20,9-20,20v113c0,11,9,20,20,20H2082"/>
		<path id="path124" inkscape:connector-curvature="0" fill="#FFFFFF" d="M2040,4576.2v113c0,11,9,20,20,20h120c11,0,20-9,20-20
			v-113c0-11-9-20-20-20h-120C2049,4556.2,2040,4565.2,2040,4576.2"/>
		<path id="path126" inkscape:connector-curvature="0" fill="#FFFFFF" d="M1679,4576.2c0-11-9-20-20-20h-120c-11,0-20,9-20,20v113
			c0,11,9,20,20,20h120c11,0,20-9,20-20V4576.2"/>
		<path id="path128" inkscape:connector-curvature="0" fill="#FFFFFF" d="M1582,4486.2v-113c0-11-9-20-20-20h-120c-11,0-20,9-20,20
			v113c0,11,9,20,20,20h120C1573,4506.2,1582,4497.2,1582,4486.2"/>
		<path id="path130" inkscape:connector-curvature="0" fill="#FFFFFF" d="M1625,4779.2c0-11-9-20-20-20h-120c-11,0-20,9-20,20v113
			c0,11,9,20,20,20h120c11,0,20-9,20-20V4779.2"/>
		<path id="path132" inkscape:connector-curvature="0" fill="#FFFFFF" d="M2252,4306.2h-413.336v-153H2252c11,0,20,9,20,20v113
			C2272,4297.2,2263,4306.2,2252,4306.2"/>
		<path id="path134" inkscape:connector-curvature="0" fill="#FFFFFF" d="M2163,4352.2c-11,0-20,9-20,20v113c0,11,9,20,20,20h120
			c11,0,20-9,20-20v-113c0-11-9-20-20-20H2163"/>
		<path id="path136" inkscape:connector-curvature="0" fill="#FFFFFF" d="M2261,4556.2c-11,0-20,9-20,20v113c0,11,9,20,20,20
			h120.004c11,0,20-9,20-20v-113c0-11-9-20-20-20H2261"/>
		<path id="path138" inkscape:connector-curvature="0" fill="#FFFFFF" d="M2375.004,5227.2c0,11,9,20,20,20h107c11,0,20-9,20-20v-57
			c0-11-9-20-20-20h-107c-11,0-20,9-20,20V5227.2"/>
		<path id="path140" inkscape:connector-curvature="0" fill="#FFFFFF" d="M2355.004,5089.2c0,11,9,20,20,20h120c11,0,20-9,20-20
			v-113c0-11-9-20-20-20h-120c-11,0-20,9-20,20V5089.2"/>
		<path id="path142" inkscape:connector-curvature="0" fill="#FFFFFF" d="M2347.004,4892.2v-113c0-11-9-20-20-20H2207
			c-11,0-20,9-20,20v113c0,11,9,20,20,20h120.004C2338.004,4912.2,2347.004,4903.2,2347.004,4892.2"/>
		<path id="path144" inkscape:connector-curvature="0" fill="#FFFFFF" d="M2192,5227.2c0,11,9,20,20,20h107
			c11.004,0,20.004-9,20.004-20v-57c0-11-9-20-20.004-20h-107c-11,0-20,9-20,20V5227.2"/>
		<path id="path146" inkscape:connector-curvature="0" fill="#FFFFFF" d="M2154,5089.2c0,11,9,20,20,20h120c11,0,20-9,20-20v-113
			c0-11-9-20-20-20h-120c-11,0-20,9-20,20V5089.2"/>
		<path id="path148" inkscape:connector-curvature="0" fill="#FFFFFF" d="M2146,4892.2v-113c0-11-9-20-20-20h-120c-11,0-20,9-20,20
			v113c0,11,9,20,20,20h120C2137,4912.2,2146,4903.2,2146,4892.2"/>
		<path id="path150" inkscape:connector-curvature="0" fill="#FFFFFF" d="M1982,5227.2c0,11,9,20,20,20h107c11,0,20-9,20-20v-57
			c0-11-9-20-20-20h-107c-11,0-20,9-20,20V5227.2"/>
		<path id="path152" inkscape:connector-curvature="0" fill="#FFFFFF" d="M1953,5089.2c0,11,9,20,20,20h120c11,0,20-9,20-20v-113
			c0-11-9-20-20-20h-120c-11,0-20,9-20,20V5089.2"/>
		<path id="path154" inkscape:connector-curvature="0" fill="#FFFFFF" d="M1482,5227.2c0,11,9,20,20,20h107c11,0,20-9,20-20v-57
			c0-11-9-20-20-20h-107c-11,0-20,9-20,20V5227.2"/>
		<path id="path156" inkscape:connector-curvature="0" fill="#FFFFFF" d="M1571,5109.2c11,0,20-9,20-20v-113c0-11-9-20-20-20h-120
			c-11,0-20,9-20,20v113c0,11,9,20,20,20H1571"/>
		<path id="path158" inkscape:connector-curvature="0" fill="#FFFFFF" d="M2472.004,4172.2c0-11-9-20-20-20h-120
			c-11.004,0-20.004,9-20.004,20v113c0,11,9,20,20.004,20h120c11,0,20-9,20-20V4172.2"/>
		<path id="path160" inkscape:connector-curvature="0" fill="#FFFFFF" d="M2504.004,4372.2c0-11-9-20-20-20h-120c-11,0-20,9-20,20
			v113c0,11,9,20,20,20h120c11,0,20-9,20-20V4372.2"/>
		<path id="path162" inkscape:connector-curvature="0" fill="#FFFFFF" d="M2676.004,4172.2c0-11-9-20-20-20h-120c-11,0-20,9-20,20
			v113c0,11,9,20,20,20h120c11,0,20-9,20-20V4172.2"/>
		<path id="path164" inkscape:connector-curvature="0" fill="#FFFFFF" d="M2705.004,4372.2c0-11-9-20-20-20h-120c-11,0-20,9-20,20
			v113c0,11,9,20,20,20h120c11,0,20-9,20-20V4372.2"/>
		<path id="path166" inkscape:connector-curvature="0" fill="#FFFFFF" d="M2880.004,4172.2c0-11-9-20-20-20h-120c-11,0-20,9-20,20
			v113c0,11,9,20,20,20h120c11,0,20-9,20-20V4172.2"/>
		<path id="path168" inkscape:connector-curvature="0" fill="#FFFFFF" d="M2905.004,4372.2c0-11-9-20-20-20h-120c-11,0-20,9-20,20
			v113c0,11,9,20,20,20h120c11,0,20-9,20-20V4372.2"/>
		<path id="path170" inkscape:connector-curvature="0" fill="#FFFFFF" d="M3084.004,4172.2c0-11-9-20-20-20h-120c-11,0-20,9-20,20
			v113c0,11,9,20,20,20h120c11,0,20-9,20-20V4172.2"/>
		<path id="path172" inkscape:connector-curvature="0" fill="#FFFFFF" d="M3288.004,4172.2c0-11-9-20-20-20h-120c-11,0-20,9-20,20
			v113c0,11,9,20,20,20h120c11,0,20-9,20-20V4172.2"/>
		<path id="path174" inkscape:connector-curvature="0" fill="#FFFFFF" d="M3321.004,4486.2c0,11,9,20,20,20h120c11,0,20-9,20-20
			v-113c0-11-9-20-20-20h-120c-11,0-20,9-20,20V4486.2"/>
		<path id="path176" inkscape:connector-curvature="0" fill="#FFFFFF" d="M3486.004,4172.2c0-11-9-20-20-20h-120c-11,0-20,9-20,20
			v113c0,11,9,20,20,20h120c11,0,20-9,20-20V4172.2"/>
		<path id="path178" inkscape:connector-curvature="0" fill="#FFFFFF" d="M3872.004,5227.2c0,11,9,20,20,20h100c11,0,20-9,20-20v-57
			c0-11-9-20-20-20h-100c-11,0-20,9-20,20V5227.2"/>
		<path id="path180" inkscape:connector-curvature="0" fill="#FFFFFF" d="M3992.003,4562.2h-90c-11,0-20,9-20,20v113
			c0,11,9,20,20,20h90c11,0,20-9,20-20v-113C4012.003,4571.2,4003.003,4562.2,3992.003,4562.2"/>
		<path id="path182" inkscape:connector-curvature="0" fill="#FFFFFF" d="M4012.003,4492.2v-113c0-11-9-20-20-20h-90
			c-11,0-20,9-20,20v113c0,11,9,20,20,20h90C4003.003,4512.2,4012.003,4503.2,4012.003,4492.2"/>
		<path id="path184" inkscape:connector-curvature="0" fill="#FFFFFF" d="M3992.003,4762.2h-90c-11,0-20,9-20,20v113
			c0,11,9,20,20,20h90c11,0,20-9,20-20v-113C4012.003,4771.2,4003.003,4762.2,3992.003,4762.2"/>
		<path id="path186" inkscape:connector-curvature="0" fill="#FFFFFF" d="M3992.003,4962.2h-90c-11,0-20,9-20,20v114
			c0,11,9,20,20,20h90c11,0,20-9,20-20v-113C4012.003,4971.2,4003.003,4962.2,3992.003,4962.2"/>
		<path id="path188" inkscape:connector-curvature="0" fill="#FFFFFF" d="M4013.003,4172.2c0-11-9-20-20-20h-120c-11,0-20,9-20,20
			v113c0,11,9,20,20,20h120c11,0,20-9,20-20V4172.2"/>
		<path id="path190" inkscape:connector-curvature="0" fill="#FFFFFF" d="M4052.003,5096.2c0,11,9,20,20,20h90c11,0,20-9,20-20v-113
			c0-11-9-20-20-20h-90c-11,0-20,9-20,20V5096.2"/>
		<path id="path192" inkscape:connector-curvature="0" fill="#FFFFFF" d="M4185.003,4172.2c0-11-9-20-20-20h-90c-11,0-20,9-20,20
			v113c0,11,9,20,20,20h90c11,0,20-9,20-20V4172.2"/>
		<path id="path194" inkscape:connector-curvature="0" fill="#FFFFFF" d="M4185.003,4379.2c0-11-9-20-20-20h-90c-11,0-20,9-20,20
			v113c0,11,9,20,20,20h90c11,0,20-9,20-20V4379.2"/>
		<path id="path196" inkscape:connector-curvature="0" fill="#FFFFFF" d="M4185.003,4582.2c0-11-9-20-20-20h-90c-11,0-20,9-20,20
			v113c0,11,9,20,20,20h90c11,0,20-9,20-20V4582.2"/>
		<path id="path198" inkscape:connector-curvature="0" fill="#FFFFFF" d="M4185.003,4782.2c0-11-9-20-20-20h-90c-11,0-20,9-20,20
			v113c0,11,9,20,20,20h90c11,0,20-9,20-20V4782.2"/>
		<path id="path200" inkscape:connector-curvature="0" fill="#FFFFFF" d="M4199.003,5171.2c0-11-9-20-20-20h-100c-11,0-20,9-20,20
			v57c0,11,9,20,20,20h100c11,0,20-9,20-20V5171.2"/>
		<path id="path202" inkscape:connector-curvature="0" fill="#FFFFFF" d="M4362.003,4172.2c0-11-9-20-20-20h-90c-11,0-20,9-20,20
			v113c0,11,9,20,20,20h90c11,0,20-9,20-20V4172.2"/>
		<path id="path204" inkscape:connector-curvature="0" fill="#FFFFFF" d="M4362.003,4379.2c0-11-9-20-20-20h-90c-11,0-20,9-20,20
			v113c0,11,9,20,20,20h90c11,0,20-9,20-20V4379.2"/>
		<path id="path206" inkscape:connector-curvature="0" fill="#FFFFFF" d="M4362.003,4582.2c0-11-9-20-20-20h-90c-11,0-20,9-20,20
			v113c0,11,9,20,20,20h90c11,0,20-9,20-20V4582.2"/>
		<path id="path208" inkscape:connector-curvature="0" fill="#FFFFFF" d="M4362.003,4782.2c0-11-9-20-20-20h-90c-11,0-20,9-20,20
			v113c0,11,9,20,20,20h90c11,0,20-9,20-20V4782.2"/>
		<path id="path210" inkscape:connector-curvature="0" fill="#FFFFFF" d="M4362.003,4982.2c0-11-9-20-20-20h-90c-11,0-20,9-20,20
			v114c0,11,9,20,20,20h90c11,0,20-9,20-20V4982.2"/>
		<path id="path212" inkscape:connector-curvature="0" fill="#FFFFFF" d="M4365.003,5171.2c0-11-9-20-20-20h-100c-11,0-20,9-20,20
			v57c0,11,9,20,20,20h100c11,0,20-9,20-20V5171.2"/>
		<path id="path214" inkscape:connector-curvature="0" fill="#FFFFFF" d="M4542.003,4172.2c0-11-9-20-20-20h-90c-11,0-20,9-20,20
			v317c0,11,9,20,20,20h90c11,0,20-9,20-20V4172.2"/>
		<path id="path216" inkscape:connector-curvature="0" fill="#FFFFFF" d="M4542.003,4579.2c0-11-9-20-20-20h-90c-11,0-20,9-20,20
			v317c0,11,9,20,20,20h90c11,0,20-9,20-20V4579.2"/>
		<path id="path218" inkscape:connector-curvature="0" fill="#FFFFFF" d="M4542.003,4982.2c0-11-9-20-20-20h-90c-11,0-20,9-20,20
			v114c0,11,9,20,20,20h90c11,0,20-9,20-20V4982.2"/>
		<path id="path220" inkscape:connector-curvature="0" fill="#FFFFFF" d="M4542.003,5171.2c0-11-9-20-20-20h-100c-11,0-20,9-20,20
			v57c0,11,9,20,20,20h100c11,0,20-9,20-20V5171.2"/>
		<path id="path222" inkscape:connector-curvature="0" fill="#FFFFFF" d="M2422.004,3059.2c0-11-9-20-20-20H1247c-11,0-20,9-20,20
			v130c0,11,9,20,20,20h1155.004c11,0,20-9,20-20V3059.2"/>
		<path id="path224" inkscape:connector-curvature="0" fill="#FFFFFF" d="M2432.004,3299.2c0-11-9-20-20-20H1222c-11,0-20,9-20,20
			v650c0,11,9,20,20,20h1190.004c11,0,20-9,20-20V3299.2"/>
	</g>
</g>
</svg>
